<mxfile host="app.diagrams.net" modified="2024-01-08T19:41:07.751Z" agent="Mozilla/5.0 (X11; Linux x86_64) AppleWebKit/537.36 (KHTML, like Gecko) Chrome/120.0.0.0 Safari/537.36" etag="VY_R6o0qCIXvWdIoqady" version="22.1.17" type="device">
  <diagram name="Page-1" id="yP0i206jLwXqczYJ7cgE">
    <mxGraphModel dx="1515" dy="614" grid="1" gridSize="10" guides="1" tooltips="1" connect="1" arrows="1" fold="1" page="1" pageScale="1" pageWidth="850" pageHeight="1100" math="0" shadow="0">
      <root>
        <mxCell id="0" />
        <mxCell id="1" parent="0" />
        <mxCell id="THpzJJgdX24z2KqZOQtY-288" style="edgeStyle=orthogonalEdgeStyle;rounded=0;orthogonalLoop=1;jettySize=auto;html=1;strokeWidth=2;entryX=0;entryY=0.5;entryDx=0;entryDy=0;exitX=1;exitY=0.5;exitDx=0;exitDy=0;" parent="1" source="THpzJJgdX24z2KqZOQtY-248" target="THpzJJgdX24z2KqZOQtY-354" edge="1">
          <mxGeometry relative="1" as="geometry">
            <mxPoint x="470" y="1530" as="targetPoint" />
            <Array as="points">
              <mxPoint x="630" y="1690" />
              <mxPoint x="630" y="1610" />
              <mxPoint x="430" y="1610" />
              <mxPoint x="430" y="1530" />
            </Array>
          </mxGeometry>
        </mxCell>
        <mxCell id="THpzJJgdX24z2KqZOQtY-202" value="Simumlator" style="endArrow=classic;html=1;rounded=0;strokeWidth=2;entryX=0.433;entryY=0.717;entryDx=0;entryDy=0;entryPerimeter=0;" parent="1" edge="1" target="qrqE6ktLIQG-A0BeUlNP-98">
          <mxGeometry x="-1" y="-10" width="50" height="50" relative="1" as="geometry">
            <mxPoint x="40" y="1480" as="sourcePoint" />
            <mxPoint x="1150" y="1480" as="targetPoint" />
            <mxPoint as="offset" />
          </mxGeometry>
        </mxCell>
        <mxCell id="THpzJJgdX24z2KqZOQtY-287" value="" style="endArrow=none;html=1;rounded=0;entryX=1;entryY=0.5;entryDx=0;entryDy=0;strokeWidth=2;" parent="1" target="THpzJJgdX24z2KqZOQtY-248" edge="1">
          <mxGeometry width="50" height="50" relative="1" as="geometry">
            <mxPoint x="240" y="1690" as="sourcePoint" />
            <mxPoint x="650" y="1500" as="targetPoint" />
          </mxGeometry>
        </mxCell>
        <mxCell id="THpzJJgdX24z2KqZOQtY-1" value="Simumlator" style="endArrow=classic;html=1;rounded=0;strokeWidth=2;entryX=0.3;entryY=0.583;entryDx=0;entryDy=0;entryPerimeter=0;" parent="1" edge="1" target="qrqE6ktLIQG-A0BeUlNP-87">
          <mxGeometry x="-1" y="-10" width="50" height="50" relative="1" as="geometry">
            <mxPoint x="40" y="200" as="sourcePoint" />
            <mxPoint x="440" y="200" as="targetPoint" />
            <mxPoint as="offset" />
          </mxGeometry>
        </mxCell>
        <mxCell id="THpzJJgdX24z2KqZOQtY-16" value="ACS" style="endArrow=classic;html=1;rounded=0;strokeWidth=2;entryX=0.433;entryY=0.7;entryDx=0;entryDy=0;entryPerimeter=0;" parent="1" edge="1" target="qrqE6ktLIQG-A0BeUlNP-85">
          <mxGeometry x="-1" y="10" width="50" height="50" relative="1" as="geometry">
            <mxPoint x="40" y="160" as="sourcePoint" />
            <mxPoint x="440" y="160" as="targetPoint" />
            <mxPoint as="offset" />
          </mxGeometry>
        </mxCell>
        <mxCell id="THpzJJgdX24z2KqZOQtY-27" value="Task without jobs to execute" style="text;html=1;strokeColor=none;fillColor=none;align=center;verticalAlign=middle;whiteSpace=wrap;rounded=0;" parent="1" vertex="1">
          <mxGeometry x="120" y="110" width="140" height="30" as="geometry" />
        </mxCell>
        <mxCell id="THpzJJgdX24z2KqZOQtY-28" value="Simumlator" style="endArrow=classic;html=1;rounded=0;strokeWidth=2;" parent="1" edge="1" target="qrqE6ktLIQG-A0BeUlNP-78">
          <mxGeometry x="-1" y="-10" width="50" height="50" relative="1" as="geometry">
            <mxPoint x="40" y="720" as="sourcePoint" />
            <mxPoint x="740" y="720" as="targetPoint" />
            <mxPoint as="offset" />
          </mxGeometry>
        </mxCell>
        <mxCell id="THpzJJgdX24z2KqZOQtY-29" value="request" style="endArrow=classic;html=1;rounded=0;" parent="1" edge="1">
          <mxGeometry x="-0.4" y="-18" width="50" height="50" relative="1" as="geometry">
            <mxPoint x="60" y="680" as="sourcePoint" />
            <mxPoint x="80" y="720" as="targetPoint" />
            <Array as="points">
              <mxPoint x="70" y="700" />
            </Array>
            <mxPoint as="offset" />
          </mxGeometry>
        </mxCell>
        <mxCell id="THpzJJgdX24z2KqZOQtY-30" value="session" style="rounded=0;whiteSpace=wrap;html=1;" parent="1" vertex="1">
          <mxGeometry x="120" y="710" width="150" height="20" as="geometry" />
        </mxCell>
        <mxCell id="THpzJJgdX24z2KqZOQtY-31" value="" style="endArrow=classic;html=1;rounded=0;" parent="1" edge="1">
          <mxGeometry width="50" height="50" relative="1" as="geometry">
            <mxPoint x="140" y="720" as="sourcePoint" />
            <mxPoint x="150" y="680" as="targetPoint" />
          </mxGeometry>
        </mxCell>
        <mxCell id="THpzJJgdX24z2KqZOQtY-32" value="" style="endArrow=classic;html=1;rounded=0;" parent="1" edge="1">
          <mxGeometry width="50" height="50" relative="1" as="geometry">
            <mxPoint x="160" y="680" as="sourcePoint" />
            <mxPoint x="170" y="720" as="targetPoint" />
          </mxGeometry>
        </mxCell>
        <mxCell id="THpzJJgdX24z2KqZOQtY-33" value="" style="endArrow=classic;html=1;rounded=0;" parent="1" edge="1">
          <mxGeometry width="50" height="50" relative="1" as="geometry">
            <mxPoint x="220" y="720" as="sourcePoint" />
            <mxPoint x="230" y="680" as="targetPoint" />
          </mxGeometry>
        </mxCell>
        <mxCell id="THpzJJgdX24z2KqZOQtY-34" value="" style="endArrow=classic;html=1;rounded=0;" parent="1" edge="1">
          <mxGeometry width="50" height="50" relative="1" as="geometry">
            <mxPoint x="240" y="680" as="sourcePoint" />
            <mxPoint x="250" y="720" as="targetPoint" />
          </mxGeometry>
        </mxCell>
        <mxCell id="THpzJJgdX24z2KqZOQtY-35" value="ACS" style="endArrow=classic;html=1;rounded=0;strokeWidth=2;entryX=-0.05;entryY=0.5;entryDx=0;entryDy=0;entryPerimeter=0;" parent="1" edge="1" target="qrqE6ktLIQG-A0BeUlNP-80">
          <mxGeometry x="-1" y="10" width="50" height="50" relative="1" as="geometry">
            <mxPoint x="40" y="680" as="sourcePoint" />
            <mxPoint x="740" y="680" as="targetPoint" />
            <mxPoint as="offset" />
          </mxGeometry>
        </mxCell>
        <mxCell id="THpzJJgdX24z2KqZOQtY-36" value="response" style="endArrow=classic;html=1;rounded=0;" parent="1" edge="1">
          <mxGeometry x="0.4" y="-18" width="50" height="50" relative="1" as="geometry">
            <mxPoint x="80" y="720" as="sourcePoint" />
            <mxPoint x="100" y="680" as="targetPoint" />
            <mxPoint as="offset" />
          </mxGeometry>
        </mxCell>
        <mxCell id="THpzJJgdX24z2KqZOQtY-40" value="Task that starts a diagnostic" style="text;html=1;strokeColor=none;fillColor=none;align=center;verticalAlign=middle;whiteSpace=wrap;rounded=0;" parent="1" vertex="1">
          <mxGeometry x="120" y="630" width="140" height="30" as="geometry" />
        </mxCell>
        <mxCell id="THpzJJgdX24z2KqZOQtY-84" value="&lt;br&gt;" style="endArrow=open;html=1;rounded=0;exitX=0;exitY=1;exitDx=0;exitDy=0;fillColor=#dae8fc;strokeColor=#6c8ebf;entryX=0.5;entryY=0;entryDx=0;entryDy=0;dashed=1;dashPattern=1 2;endFill=0;" parent="1" target="THpzJJgdX24z2KqZOQtY-109" edge="1">
          <mxGeometry x="-0.2" width="50" height="50" relative="1" as="geometry">
            <mxPoint x="269.9999999999999" y="730" as="sourcePoint" />
            <mxPoint x="270" y="780.0000000000001" as="targetPoint" />
            <mxPoint as="offset" />
          </mxGeometry>
        </mxCell>
        <mxCell id="THpzJJgdX24z2KqZOQtY-86" value="&lt;br&gt;" style="endArrow=open;html=1;rounded=0;exitX=0;exitY=1;exitDx=0;exitDy=0;fillColor=#dae8fc;strokeColor=#6c8ebf;entryX=0.5;entryY=0;entryDx=0;entryDy=0;dashed=1;dashPattern=1 2;endFill=0;" parent="1" target="THpzJJgdX24z2KqZOQtY-107" edge="1">
          <mxGeometry width="50" height="50" relative="1" as="geometry">
            <mxPoint x="120" y="730" as="sourcePoint" />
            <mxPoint x="120" y="750.0000000000001" as="targetPoint" />
            <mxPoint as="offset" />
          </mxGeometry>
        </mxCell>
        <mxCell id="THpzJJgdX24z2KqZOQtY-107" value="&lt;div style=&quot;line-height: 100%;&quot;&gt;session&lt;/div&gt;&lt;div style=&quot;line-height: 100%;&quot;&gt;&lt;span data-darkreader-inline-color=&quot;&quot; data-darkreader-inline-bgcolor=&quot;&quot; style=&quot;background-color: initial; color: rgb(0, 0, 0); --darkreader-inline-bgcolor: initial; --darkreader-inline-color: #e8e6e3;&quot;&gt;start&lt;/span&gt;&lt;/div&gt;" style="ellipse;whiteSpace=wrap;html=1;fillColor=#dae8fc;strokeColor=#6c8ebf;" parent="1" vertex="1">
          <mxGeometry x="90" y="760" width="60" height="30" as="geometry" />
        </mxCell>
        <mxCell id="THpzJJgdX24z2KqZOQtY-109" value="&lt;div style=&quot;line-height: 100%;&quot;&gt;session&lt;/div&gt;&lt;div style=&quot;line-height: 100%;&quot;&gt;&lt;span data-darkreader-inline-color=&quot;&quot; data-darkreader-inline-bgcolor=&quot;&quot; style=&quot;background-color: initial; color: rgb(0, 0, 0); --darkreader-inline-bgcolor: initial; --darkreader-inline-color: #e8e6e3;&quot;&gt;end&lt;/span&gt;&lt;/div&gt;" style="ellipse;whiteSpace=wrap;html=1;fillColor=#dae8fc;strokeColor=#6c8ebf;" parent="1" vertex="1">
          <mxGeometry x="240" y="780" width="60" height="30" as="geometry" />
        </mxCell>
        <mxCell id="THpzJJgdX24z2KqZOQtY-114" value="&lt;br&gt;" style="endArrow=open;html=1;rounded=0;fillColor=#dae8fc;strokeColor=#6c8ebf;entryX=0.5;entryY=0;entryDx=0;entryDy=0;dashed=1;dashPattern=1 2;endFill=0;" parent="1" target="THpzJJgdX24z2KqZOQtY-115" edge="1">
          <mxGeometry width="50" height="50" relative="1" as="geometry">
            <mxPoint x="80" y="720" as="sourcePoint" />
            <mxPoint x="82.5" y="800.0000000000001" as="targetPoint" />
            <mxPoint as="offset" />
          </mxGeometry>
        </mxCell>
        <mxCell id="THpzJJgdX24z2KqZOQtY-115" value="requested" style="ellipse;whiteSpace=wrap;html=1;fillColor=#dae8fc;strokeColor=#6c8ebf;" parent="1" vertex="1">
          <mxGeometry x="50" y="740" width="60" height="20" as="geometry" />
        </mxCell>
        <mxCell id="THpzJJgdX24z2KqZOQtY-120" value="Simumlator" style="endArrow=classic;html=1;rounded=0;strokeWidth=2;entryX=0.467;entryY=0.667;entryDx=0;entryDy=0;entryPerimeter=0;" parent="1" edge="1" target="qrqE6ktLIQG-A0BeUlNP-92">
          <mxGeometry x="-1" y="-10" width="50" height="50" relative="1" as="geometry">
            <mxPoint x="40" y="1040" as="sourcePoint" />
            <mxPoint x="1140" y="1040" as="targetPoint" />
            <mxPoint as="offset" />
          </mxGeometry>
        </mxCell>
        <mxCell id="THpzJJgdX24z2KqZOQtY-121" value="request" style="endArrow=classic;html=1;rounded=0;" parent="1" edge="1">
          <mxGeometry x="-0.4" y="-18" width="50" height="50" relative="1" as="geometry">
            <mxPoint x="60" y="1000" as="sourcePoint" />
            <mxPoint x="80" y="1040" as="targetPoint" />
            <Array as="points">
              <mxPoint x="70" y="1020" />
            </Array>
            <mxPoint as="offset" />
          </mxGeometry>
        </mxCell>
        <mxCell id="THpzJJgdX24z2KqZOQtY-122" value="session" style="rounded=0;whiteSpace=wrap;html=1;" parent="1" vertex="1">
          <mxGeometry x="120" y="1030" width="150" height="20" as="geometry" />
        </mxCell>
        <mxCell id="THpzJJgdX24z2KqZOQtY-123" value="" style="endArrow=classic;html=1;rounded=0;" parent="1" edge="1">
          <mxGeometry width="50" height="50" relative="1" as="geometry">
            <mxPoint x="140" y="1040" as="sourcePoint" />
            <mxPoint x="150" y="1000" as="targetPoint" />
          </mxGeometry>
        </mxCell>
        <mxCell id="THpzJJgdX24z2KqZOQtY-124" value="" style="endArrow=classic;html=1;rounded=0;" parent="1" edge="1">
          <mxGeometry width="50" height="50" relative="1" as="geometry">
            <mxPoint x="160" y="1000" as="sourcePoint" />
            <mxPoint x="170" y="1040" as="targetPoint" />
          </mxGeometry>
        </mxCell>
        <mxCell id="THpzJJgdX24z2KqZOQtY-125" value="" style="endArrow=classic;html=1;rounded=0;" parent="1" edge="1">
          <mxGeometry width="50" height="50" relative="1" as="geometry">
            <mxPoint x="220" y="1040" as="sourcePoint" />
            <mxPoint x="230" y="1000" as="targetPoint" />
          </mxGeometry>
        </mxCell>
        <mxCell id="THpzJJgdX24z2KqZOQtY-126" value="" style="endArrow=classic;html=1;rounded=0;" parent="1" edge="1">
          <mxGeometry width="50" height="50" relative="1" as="geometry">
            <mxPoint x="240" y="1000" as="sourcePoint" />
            <mxPoint x="250" y="1040" as="targetPoint" />
          </mxGeometry>
        </mxCell>
        <mxCell id="THpzJJgdX24z2KqZOQtY-127" value="ACS" style="endArrow=classic;html=1;rounded=0;strokeWidth=2;entryX=0.417;entryY=0.7;entryDx=0;entryDy=0;entryPerimeter=0;" parent="1" edge="1" target="qrqE6ktLIQG-A0BeUlNP-91">
          <mxGeometry x="-1" y="10" width="50" height="50" relative="1" as="geometry">
            <mxPoint x="40" y="1000" as="sourcePoint" />
            <mxPoint x="1140" y="1000" as="targetPoint" />
            <mxPoint as="offset" />
          </mxGeometry>
        </mxCell>
        <mxCell id="THpzJJgdX24z2KqZOQtY-128" value="response" style="endArrow=classic;html=1;rounded=0;" parent="1" edge="1">
          <mxGeometry x="0.4" y="-18" width="50" height="50" relative="1" as="geometry">
            <mxPoint x="80" y="1040" as="sourcePoint" />
            <mxPoint x="100" y="1000" as="targetPoint" />
            <mxPoint as="offset" />
          </mxGeometry>
        </mxCell>
        <mxCell id="THpzJJgdX24z2KqZOQtY-130" value="2 Tasks starting a diagnostic where 2nd ends before first diagnostic response" style="text;html=1;strokeColor=none;fillColor=none;align=center;verticalAlign=middle;whiteSpace=wrap;rounded=0;" parent="1" vertex="1">
          <mxGeometry x="120" y="950" width="230" height="30" as="geometry" />
        </mxCell>
        <mxCell id="THpzJJgdX24z2KqZOQtY-141" value="&lt;br&gt;" style="endArrow=open;html=1;rounded=0;exitX=0;exitY=1;exitDx=0;exitDy=0;fillColor=#dae8fc;strokeColor=#6c8ebf;entryX=0.5;entryY=0;entryDx=0;entryDy=0;dashed=1;dashPattern=1 2;endFill=0;" parent="1" target="THpzJJgdX24z2KqZOQtY-147" edge="1">
          <mxGeometry x="-0.2" width="50" height="50" relative="1" as="geometry">
            <mxPoint x="269.9999999999999" y="1050" as="sourcePoint" />
            <mxPoint x="270" y="1100" as="targetPoint" />
            <mxPoint as="offset" />
          </mxGeometry>
        </mxCell>
        <mxCell id="THpzJJgdX24z2KqZOQtY-142" value="&lt;br&gt;" style="endArrow=open;html=1;rounded=0;exitX=0;exitY=1;exitDx=0;exitDy=0;fillColor=#dae8fc;strokeColor=#6c8ebf;entryX=0.5;entryY=0;entryDx=0;entryDy=0;dashed=1;dashPattern=1 2;startArrow=none;startFill=0;endFill=0;" parent="1" target="THpzJJgdX24z2KqZOQtY-145" edge="1">
          <mxGeometry width="50" height="50" relative="1" as="geometry">
            <mxPoint x="120" y="1050" as="sourcePoint" />
            <mxPoint x="120" y="1070" as="targetPoint" />
            <mxPoint as="offset" />
          </mxGeometry>
        </mxCell>
        <mxCell id="THpzJJgdX24z2KqZOQtY-145" value="&lt;div style=&quot;line-height: 100%;&quot;&gt;session&lt;/div&gt;&lt;div style=&quot;line-height: 100%;&quot;&gt;&lt;span data-darkreader-inline-color=&quot;&quot; data-darkreader-inline-bgcolor=&quot;&quot; style=&quot;background-color: initial; color: rgb(0, 0, 0); --darkreader-inline-bgcolor: initial; --darkreader-inline-color: #e8e6e3;&quot;&gt;start&lt;/span&gt;&lt;/div&gt;" style="ellipse;whiteSpace=wrap;html=1;fillColor=#dae8fc;strokeColor=#6c8ebf;" parent="1" vertex="1">
          <mxGeometry x="90" y="1080" width="60" height="30" as="geometry" />
        </mxCell>
        <mxCell id="THpzJJgdX24z2KqZOQtY-149" value="&lt;br&gt;" style="endArrow=open;html=1;rounded=0;fillColor=#dae8fc;strokeColor=#6c8ebf;entryX=0.5;entryY=0;entryDx=0;entryDy=0;dashed=1;dashPattern=1 2;endFill=0;" parent="1" target="THpzJJgdX24z2KqZOQtY-150" edge="1">
          <mxGeometry width="50" height="50" relative="1" as="geometry">
            <mxPoint x="80" y="1040" as="sourcePoint" />
            <mxPoint x="82.5" y="1120" as="targetPoint" />
            <mxPoint as="offset" />
          </mxGeometry>
        </mxCell>
        <mxCell id="THpzJJgdX24z2KqZOQtY-150" value="requested" style="ellipse;whiteSpace=wrap;html=1;fillColor=#dae8fc;strokeColor=#6c8ebf;" parent="1" vertex="1">
          <mxGeometry x="50" y="1060" width="60" height="20" as="geometry" />
        </mxCell>
        <mxCell id="THpzJJgdX24z2KqZOQtY-158" value="Simumlator" style="endArrow=classic;html=1;rounded=0;strokeWidth=2;entryX=0.433;entryY=0.65;entryDx=0;entryDy=0;entryPerimeter=0;" parent="1" edge="1" target="qrqE6ktLIQG-A0BeUlNP-76">
          <mxGeometry x="-1" y="-10" width="50" height="50" relative="1" as="geometry">
            <mxPoint x="240" y="1250" as="sourcePoint" />
            <mxPoint x="640" y="1250" as="targetPoint" />
            <mxPoint as="offset" />
          </mxGeometry>
        </mxCell>
        <mxCell id="THpzJJgdX24z2KqZOQtY-160" value="ACS" style="endArrow=classic;html=1;rounded=0;strokeWidth=2;entryX=0.483;entryY=0.7;entryDx=0;entryDy=0;entryPerimeter=0;" parent="1" edge="1" target="qrqE6ktLIQG-A0BeUlNP-96">
          <mxGeometry x="-1" y="10" width="50" height="50" relative="1" as="geometry">
            <mxPoint x="240" y="1210" as="sourcePoint" />
            <mxPoint x="640" y="1210" as="targetPoint" />
            <mxPoint as="offset" />
          </mxGeometry>
        </mxCell>
        <mxCell id="THpzJJgdX24z2KqZOQtY-161" value="request" style="endArrow=classic;html=1;rounded=0;" parent="1" edge="1">
          <mxGeometry x="-0.4" y="-18" width="50" height="50" relative="1" as="geometry">
            <mxPoint x="270" y="1210" as="sourcePoint" />
            <mxPoint x="290" y="1250" as="targetPoint" />
            <Array as="points">
              <mxPoint x="280" y="1230" />
            </Array>
            <mxPoint as="offset" />
          </mxGeometry>
        </mxCell>
        <mxCell id="THpzJJgdX24z2KqZOQtY-162" value="response" style="endArrow=classic;html=1;rounded=0;" parent="1" edge="1">
          <mxGeometry x="0.4" y="-18" width="50" height="50" relative="1" as="geometry">
            <mxPoint x="290" y="1250" as="sourcePoint" />
            <mxPoint x="310" y="1210" as="targetPoint" />
            <mxPoint as="offset" />
          </mxGeometry>
        </mxCell>
        <mxCell id="THpzJJgdX24z2KqZOQtY-174" value="&lt;p style=&quot;line-height: 100%;&quot;&gt;queued&lt;br&gt;diagnostic&lt;/p&gt;" style="ellipse;whiteSpace=wrap;html=1;fillColor=#ffe6cc;strokeColor=#d79b00;" parent="1" vertex="1">
          <mxGeometry x="180" y="1060" width="70" height="40" as="geometry" />
        </mxCell>
        <mxCell id="THpzJJgdX24z2KqZOQtY-175" value="" style="endArrow=open;html=1;rounded=0;entryX=0.5;entryY=0;entryDx=0;entryDy=0;dashed=1;dashPattern=1 2;endFill=0;" parent="1" target="THpzJJgdX24z2KqZOQtY-174" edge="1">
          <mxGeometry width="50" height="50" relative="1" as="geometry">
            <mxPoint x="260" y="1040" as="sourcePoint" />
            <mxPoint x="370" y="1050" as="targetPoint" />
          </mxGeometry>
        </mxCell>
        <mxCell id="THpzJJgdX24z2KqZOQtY-197" value="&lt;p style=&quot;line-height: 100%;&quot;&gt;queued&lt;br&gt;diagnostic&lt;/p&gt;" style="ellipse;whiteSpace=wrap;html=1;fillColor=#ffe6cc;strokeColor=#d79b00;" parent="1" vertex="1">
          <mxGeometry x="180" y="740" width="70" height="40" as="geometry" />
        </mxCell>
        <mxCell id="THpzJJgdX24z2KqZOQtY-198" value="" style="endArrow=open;html=1;rounded=0;entryX=0.5;entryY=0;entryDx=0;entryDy=0;dashed=1;dashPattern=1 2;endFill=0;" parent="1" target="THpzJJgdX24z2KqZOQtY-197" edge="1">
          <mxGeometry width="50" height="50" relative="1" as="geometry">
            <mxPoint x="260" y="722.5" as="sourcePoint" />
            <mxPoint x="370" y="732.5" as="targetPoint" />
          </mxGeometry>
        </mxCell>
        <mxCell id="THpzJJgdX24z2KqZOQtY-203" value="request" style="endArrow=classic;html=1;rounded=0;" parent="1" edge="1">
          <mxGeometry x="-0.4" y="-18" width="50" height="50" relative="1" as="geometry">
            <mxPoint x="60" y="1440" as="sourcePoint" />
            <mxPoint x="80" y="1480" as="targetPoint" />
            <Array as="points">
              <mxPoint x="70" y="1460" />
            </Array>
            <mxPoint as="offset" />
          </mxGeometry>
        </mxCell>
        <mxCell id="THpzJJgdX24z2KqZOQtY-204" value="session" style="rounded=0;whiteSpace=wrap;html=1;" parent="1" vertex="1">
          <mxGeometry x="120" y="1470" width="150" height="20" as="geometry" />
        </mxCell>
        <mxCell id="THpzJJgdX24z2KqZOQtY-205" value="" style="endArrow=classic;html=1;rounded=0;" parent="1" edge="1">
          <mxGeometry width="50" height="50" relative="1" as="geometry">
            <mxPoint x="140" y="1480" as="sourcePoint" />
            <mxPoint x="150" y="1440" as="targetPoint" />
          </mxGeometry>
        </mxCell>
        <mxCell id="THpzJJgdX24z2KqZOQtY-206" value="" style="endArrow=classic;html=1;rounded=0;" parent="1" edge="1">
          <mxGeometry width="50" height="50" relative="1" as="geometry">
            <mxPoint x="160" y="1440" as="sourcePoint" />
            <mxPoint x="170" y="1480" as="targetPoint" />
          </mxGeometry>
        </mxCell>
        <mxCell id="THpzJJgdX24z2KqZOQtY-207" value="" style="endArrow=classic;html=1;rounded=0;" parent="1" edge="1">
          <mxGeometry width="50" height="50" relative="1" as="geometry">
            <mxPoint x="220" y="1480" as="sourcePoint" />
            <mxPoint x="230" y="1440" as="targetPoint" />
          </mxGeometry>
        </mxCell>
        <mxCell id="THpzJJgdX24z2KqZOQtY-208" value="" style="endArrow=classic;html=1;rounded=0;" parent="1" edge="1">
          <mxGeometry width="50" height="50" relative="1" as="geometry">
            <mxPoint x="240" y="1440" as="sourcePoint" />
            <mxPoint x="250" y="1480" as="targetPoint" />
          </mxGeometry>
        </mxCell>
        <mxCell id="THpzJJgdX24z2KqZOQtY-209" value="ACS" style="endArrow=classic;html=1;rounded=0;strokeWidth=2;entryX=0.483;entryY=0.683;entryDx=0;entryDy=0;entryPerimeter=0;" parent="1" edge="1" target="qrqE6ktLIQG-A0BeUlNP-97">
          <mxGeometry x="-1" y="10" width="50" height="50" relative="1" as="geometry">
            <mxPoint x="40" y="1440" as="sourcePoint" />
            <mxPoint x="1150" y="1440" as="targetPoint" />
            <mxPoint as="offset" />
          </mxGeometry>
        </mxCell>
        <mxCell id="THpzJJgdX24z2KqZOQtY-210" value="response" style="endArrow=classic;html=1;rounded=0;" parent="1" edge="1">
          <mxGeometry x="0.4" y="-18" width="50" height="50" relative="1" as="geometry">
            <mxPoint x="80" y="1480" as="sourcePoint" />
            <mxPoint x="100" y="1440" as="targetPoint" />
            <mxPoint as="offset" />
          </mxGeometry>
        </mxCell>
        <mxCell id="THpzJJgdX24z2KqZOQtY-212" value="2 Tasks starting a diagnostic where 2nd is still on session when first diagnostic is ready to respond" style="text;html=1;strokeColor=none;fillColor=none;align=center;verticalAlign=middle;whiteSpace=wrap;rounded=0;" parent="1" vertex="1">
          <mxGeometry x="120" y="1390" width="280" height="30" as="geometry" />
        </mxCell>
        <mxCell id="THpzJJgdX24z2KqZOQtY-223" value="&lt;br&gt;" style="endArrow=open;html=1;rounded=0;exitX=0;exitY=1;exitDx=0;exitDy=0;fillColor=#dae8fc;strokeColor=#6c8ebf;entryX=0.5;entryY=0;entryDx=0;entryDy=0;dashed=1;dashPattern=1 2;endFill=0;" parent="1" target="THpzJJgdX24z2KqZOQtY-229" edge="1">
          <mxGeometry x="-0.2" width="50" height="50" relative="1" as="geometry">
            <mxPoint x="269.9999999999999" y="1490" as="sourcePoint" />
            <mxPoint x="270" y="1540" as="targetPoint" />
            <mxPoint as="offset" />
          </mxGeometry>
        </mxCell>
        <mxCell id="THpzJJgdX24z2KqZOQtY-224" value="&lt;br&gt;" style="endArrow=open;html=1;rounded=0;exitX=0;exitY=1;exitDx=0;exitDy=0;fillColor=#dae8fc;strokeColor=#6c8ebf;entryX=0.5;entryY=0;entryDx=0;entryDy=0;dashed=1;dashPattern=1 2;endFill=0;" parent="1" target="THpzJJgdX24z2KqZOQtY-227" edge="1">
          <mxGeometry width="50" height="50" relative="1" as="geometry">
            <mxPoint x="120" y="1490" as="sourcePoint" />
            <mxPoint x="120" y="1510" as="targetPoint" />
            <mxPoint as="offset" />
          </mxGeometry>
        </mxCell>
        <mxCell id="THpzJJgdX24z2KqZOQtY-227" value="&lt;div style=&quot;line-height: 100%;&quot;&gt;session&lt;/div&gt;&lt;div style=&quot;line-height: 100%;&quot;&gt;&lt;span data-darkreader-inline-color=&quot;&quot; data-darkreader-inline-bgcolor=&quot;&quot; style=&quot;background-color: initial; color: rgb(0, 0, 0); --darkreader-inline-bgcolor: initial; --darkreader-inline-color: #e8e6e3;&quot;&gt;start&lt;/span&gt;&lt;/div&gt;" style="ellipse;whiteSpace=wrap;html=1;fillColor=#dae8fc;strokeColor=#6c8ebf;" parent="1" vertex="1">
          <mxGeometry x="90" y="1520" width="60" height="30" as="geometry" />
        </mxCell>
        <mxCell id="THpzJJgdX24z2KqZOQtY-229" value="&lt;div style=&quot;line-height: 100%;&quot;&gt;session&lt;/div&gt;&lt;div style=&quot;line-height: 100%;&quot;&gt;&lt;span data-darkreader-inline-color=&quot;&quot; data-darkreader-inline-bgcolor=&quot;&quot; style=&quot;background-color: initial; color: rgb(0, 0, 0); --darkreader-inline-bgcolor: initial; --darkreader-inline-color: #e8e6e3;&quot;&gt;end&lt;/span&gt;&lt;/div&gt;" style="ellipse;whiteSpace=wrap;html=1;fillColor=#dae8fc;strokeColor=#6c8ebf;" parent="1" vertex="1">
          <mxGeometry x="240" y="1535" width="60" height="30" as="geometry" />
        </mxCell>
        <mxCell id="THpzJJgdX24z2KqZOQtY-231" value="&lt;br&gt;" style="endArrow=open;html=1;rounded=0;fillColor=#dae8fc;strokeColor=#6c8ebf;entryX=0.5;entryY=0;entryDx=0;entryDy=0;dashed=1;dashPattern=1 2;endFill=0;" parent="1" target="THpzJJgdX24z2KqZOQtY-232" edge="1">
          <mxGeometry width="50" height="50" relative="1" as="geometry">
            <mxPoint x="80" y="1480" as="sourcePoint" />
            <mxPoint x="82.5" y="1560" as="targetPoint" />
            <mxPoint as="offset" />
          </mxGeometry>
        </mxCell>
        <mxCell id="THpzJJgdX24z2KqZOQtY-232" value="requested" style="ellipse;whiteSpace=wrap;html=1;fillColor=#dae8fc;strokeColor=#6c8ebf;" parent="1" vertex="1">
          <mxGeometry x="50" y="1500" width="60" height="20" as="geometry" />
        </mxCell>
        <mxCell id="THpzJJgdX24z2KqZOQtY-239" value="ACS" style="endArrow=classic;html=1;rounded=0;strokeWidth=2;entryX=0.583;entryY=0.667;entryDx=0;entryDy=0;entryPerimeter=0;" parent="1" edge="1" target="qrqE6ktLIQG-A0BeUlNP-99">
          <mxGeometry x="-1" y="10" width="50" height="50" relative="1" as="geometry">
            <mxPoint x="240" y="1650" as="sourcePoint" />
            <mxPoint x="610" y="1650" as="targetPoint" />
            <mxPoint as="offset" />
          </mxGeometry>
        </mxCell>
        <mxCell id="THpzJJgdX24z2KqZOQtY-240" value="request" style="endArrow=classic;html=1;rounded=0;" parent="1" edge="1">
          <mxGeometry x="-0.4" y="-18" width="50" height="50" relative="1" as="geometry">
            <mxPoint x="270" y="1650" as="sourcePoint" />
            <mxPoint x="290" y="1690" as="targetPoint" />
            <Array as="points">
              <mxPoint x="280" y="1670" />
            </Array>
            <mxPoint as="offset" />
          </mxGeometry>
        </mxCell>
        <mxCell id="THpzJJgdX24z2KqZOQtY-241" value="response" style="endArrow=classic;html=1;rounded=0;" parent="1" edge="1">
          <mxGeometry x="0.4" y="-18" width="50" height="50" relative="1" as="geometry">
            <mxPoint x="290" y="1690" as="sourcePoint" />
            <mxPoint x="310" y="1650" as="targetPoint" />
            <mxPoint as="offset" />
          </mxGeometry>
        </mxCell>
        <mxCell id="THpzJJgdX24z2KqZOQtY-251" value="&lt;p style=&quot;line-height: 100%;&quot;&gt;queued&lt;br&gt;diagnostic&lt;/p&gt;" style="ellipse;whiteSpace=wrap;html=1;fillColor=#ffe6cc;strokeColor=#d79b00;" parent="1" vertex="1">
          <mxGeometry x="180" y="1500" width="70" height="40" as="geometry" />
        </mxCell>
        <mxCell id="THpzJJgdX24z2KqZOQtY-252" value="" style="endArrow=open;html=1;rounded=0;entryX=0.5;entryY=0;entryDx=0;entryDy=0;dashed=1;dashPattern=1 2;endFill=0;" parent="1" target="THpzJJgdX24z2KqZOQtY-251" edge="1">
          <mxGeometry width="50" height="50" relative="1" as="geometry">
            <mxPoint x="260" y="1480" as="sourcePoint" />
            <mxPoint x="370" y="1490" as="targetPoint" />
          </mxGeometry>
        </mxCell>
        <mxCell id="THpzJJgdX24z2KqZOQtY-375" value="" style="group" parent="1" vertex="1" connectable="0">
          <mxGeometry x="680" y="1490" width="140" height="110" as="geometry" />
        </mxCell>
        <mxCell id="THpzJJgdX24z2KqZOQtY-376" value="" style="group" parent="THpzJJgdX24z2KqZOQtY-375" vertex="1" connectable="0">
          <mxGeometry x="80" y="30" width="60" height="35" as="geometry" />
        </mxCell>
        <mxCell id="THpzJJgdX24z2KqZOQtY-377" value="pending?" style="rounded=0;whiteSpace=wrap;html=1;" parent="THpzJJgdX24z2KqZOQtY-376" vertex="1">
          <mxGeometry width="60" height="20" as="geometry" />
        </mxCell>
        <mxCell id="THpzJJgdX24z2KqZOQtY-378" value="&lt;font style=&quot;--darkreader-inline-color: #61ff61;&quot; data-darkreader-inline-color=&quot;&quot; color=&quot;#66ff66&quot;&gt;yes&lt;/font&gt;" style="text;html=1;strokeColor=none;fillColor=none;align=center;verticalAlign=middle;whiteSpace=wrap;rounded=0;" parent="THpzJJgdX24z2KqZOQtY-376" vertex="1">
          <mxGeometry x="15" y="25" width="30" height="10" as="geometry" />
        </mxCell>
        <mxCell id="THpzJJgdX24z2KqZOQtY-379" value="" style="group" parent="THpzJJgdX24z2KqZOQtY-375" vertex="1" connectable="0">
          <mxGeometry width="95" height="110" as="geometry" />
        </mxCell>
        <mxCell id="THpzJJgdX24z2KqZOQtY-380" value="diagnostic" style="rounded=0;whiteSpace=wrap;html=1;" parent="THpzJJgdX24z2KqZOQtY-379" vertex="1">
          <mxGeometry x="10" y="30" width="70" height="20" as="geometry" />
        </mxCell>
        <mxCell id="THpzJJgdX24z2KqZOQtY-381" value="yes" style="endArrow=classic;html=1;rounded=0;entryX=0;entryY=0.5;entryDx=0;entryDy=0;edgeStyle=orthogonalEdgeStyle;" parent="THpzJJgdX24z2KqZOQtY-379" edge="1">
          <mxGeometry x="-0.3333" y="10" width="50" height="50" relative="1" as="geometry">
            <mxPoint as="sourcePoint" />
            <mxPoint x="10" y="40" as="targetPoint" />
            <Array as="points">
              <mxPoint />
              <mxPoint y="35" />
            </Array>
            <mxPoint as="offset" />
          </mxGeometry>
        </mxCell>
        <mxCell id="THpzJJgdX24z2KqZOQtY-382" value="&lt;p style=&quot;line-height: 100%;&quot;&gt;queued&lt;br&gt;pending&lt;/p&gt;" style="ellipse;whiteSpace=wrap;html=1;fillColor=#ffe6cc;strokeColor=#d79b00;" parent="THpzJJgdX24z2KqZOQtY-379" vertex="1">
          <mxGeometry x="47.5" y="70" width="55" height="45" as="geometry" />
        </mxCell>
        <mxCell id="THpzJJgdX24z2KqZOQtY-383" value="" style="endArrow=open;html=1;rounded=0;entryX=0.5;entryY=0;entryDx=0;entryDy=0;dashed=1;dashPattern=1 2;endFill=0;" parent="THpzJJgdX24z2KqZOQtY-379" target="THpzJJgdX24z2KqZOQtY-382" edge="1">
          <mxGeometry width="50" height="50" relative="1" as="geometry">
            <mxPoint x="75" y="40" as="sourcePoint" />
            <mxPoint x="182.5" y="42.5" as="targetPoint" />
          </mxGeometry>
        </mxCell>
        <mxCell id="THpzJJgdX24z2KqZOQtY-388" value="" style="group" parent="1" vertex="1" connectable="0">
          <mxGeometry x="290" y="1650" width="310" height="125" as="geometry" />
        </mxCell>
        <mxCell id="THpzJJgdX24z2KqZOQtY-385" value="" style="group" parent="THpzJJgdX24z2KqZOQtY-388" vertex="1" connectable="0">
          <mxGeometry x="180" y="30" width="70" height="35" as="geometry" />
        </mxCell>
        <mxCell id="THpzJJgdX24z2KqZOQtY-246" value="busy" style="text;html=1;align=center;verticalAlign=middle;whiteSpace=wrap;rounded=0;fontColor=#FF6666;" parent="THpzJJgdX24z2KqZOQtY-385" vertex="1">
          <mxGeometry x="20" y="25" width="30" height="10" as="geometry" />
        </mxCell>
        <mxCell id="THpzJJgdX24z2KqZOQtY-247" value="diagnostic?" style="rounded=0;whiteSpace=wrap;html=1;" parent="THpzJJgdX24z2KqZOQtY-385" vertex="1">
          <mxGeometry width="70" height="20" as="geometry" />
        </mxCell>
        <mxCell id="THpzJJgdX24z2KqZOQtY-386" value="" style="group" parent="THpzJJgdX24z2KqZOQtY-388" vertex="1" connectable="0">
          <mxGeometry x="250" y="30" width="60" height="35" as="geometry" />
        </mxCell>
        <mxCell id="THpzJJgdX24z2KqZOQtY-248" value="pending?" style="rounded=0;whiteSpace=wrap;html=1;" parent="THpzJJgdX24z2KqZOQtY-386" vertex="1">
          <mxGeometry width="60" height="20" as="geometry" />
        </mxCell>
        <mxCell id="THpzJJgdX24z2KqZOQtY-250" value="&lt;font style=&quot;--darkreader-inline-color: #61ff61;&quot; data-darkreader-inline-color=&quot;&quot; color=&quot;#66ff66&quot;&gt;yes&lt;/font&gt;" style="text;html=1;strokeColor=none;fillColor=none;align=center;verticalAlign=middle;whiteSpace=wrap;rounded=0;" parent="THpzJJgdX24z2KqZOQtY-386" vertex="1">
          <mxGeometry x="15" y="25" width="30" height="10" as="geometry" />
        </mxCell>
        <mxCell id="THpzJJgdX24z2KqZOQtY-387" value="" style="group" parent="THpzJJgdX24z2KqZOQtY-388" vertex="1" connectable="0">
          <mxGeometry width="210" height="125" as="geometry" />
        </mxCell>
        <mxCell id="THpzJJgdX24z2KqZOQtY-238" value="session" style="rounded=0;whiteSpace=wrap;html=1;" parent="THpzJJgdX24z2KqZOQtY-387" vertex="1">
          <mxGeometry x="30" y="30" width="150" height="20" as="geometry" />
        </mxCell>
        <mxCell id="THpzJJgdX24z2KqZOQtY-242" value="" style="endArrow=classic;html=1;rounded=0;" parent="THpzJJgdX24z2KqZOQtY-387" edge="1">
          <mxGeometry width="50" height="50" relative="1" as="geometry">
            <mxPoint x="50" y="40" as="sourcePoint" />
            <mxPoint x="60" as="targetPoint" />
          </mxGeometry>
        </mxCell>
        <mxCell id="THpzJJgdX24z2KqZOQtY-243" value="" style="endArrow=classic;html=1;rounded=0;" parent="THpzJJgdX24z2KqZOQtY-387" edge="1">
          <mxGeometry width="50" height="50" relative="1" as="geometry">
            <mxPoint x="70" as="sourcePoint" />
            <mxPoint x="80" y="40" as="targetPoint" />
          </mxGeometry>
        </mxCell>
        <mxCell id="THpzJJgdX24z2KqZOQtY-244" value="" style="endArrow=classic;html=1;rounded=0;" parent="THpzJJgdX24z2KqZOQtY-387" edge="1">
          <mxGeometry width="50" height="50" relative="1" as="geometry">
            <mxPoint x="130" y="40" as="sourcePoint" />
            <mxPoint x="140" as="targetPoint" />
          </mxGeometry>
        </mxCell>
        <mxCell id="THpzJJgdX24z2KqZOQtY-245" value="" style="endArrow=classic;html=1;rounded=0;" parent="THpzJJgdX24z2KqZOQtY-387" edge="1">
          <mxGeometry width="50" height="50" relative="1" as="geometry">
            <mxPoint x="150" as="sourcePoint" />
            <mxPoint x="160" y="40" as="targetPoint" />
          </mxGeometry>
        </mxCell>
        <mxCell id="THpzJJgdX24z2KqZOQtY-253" value="&lt;p style=&quot;line-height: 100%;&quot;&gt;queued&lt;br&gt;diagnostic&lt;/p&gt;" style="ellipse;whiteSpace=wrap;html=1;fillColor=#ffe6cc;strokeColor=#d79b00;" parent="THpzJJgdX24z2KqZOQtY-387" vertex="1">
          <mxGeometry x="80" y="65" width="70" height="40" as="geometry" />
        </mxCell>
        <mxCell id="THpzJJgdX24z2KqZOQtY-254" value="" style="endArrow=open;html=1;rounded=0;entryX=0.5;entryY=0;entryDx=0;entryDy=0;dashed=1;dashPattern=1 2;endFill=0;" parent="THpzJJgdX24z2KqZOQtY-387" target="THpzJJgdX24z2KqZOQtY-253" edge="1">
          <mxGeometry width="50" height="50" relative="1" as="geometry">
            <mxPoint x="170" y="40" as="sourcePoint" />
            <mxPoint x="280" y="50" as="targetPoint" />
          </mxGeometry>
        </mxCell>
        <mxCell id="THpzJJgdX24z2KqZOQtY-295" value="&lt;div style=&quot;line-height: 100%;&quot;&gt;session&lt;/div&gt;&lt;div style=&quot;line-height: 100%;&quot;&gt;&lt;span data-darkreader-inline-color=&quot;&quot; data-darkreader-inline-bgcolor=&quot;&quot; style=&quot;background-color: initial; color: rgb(0, 0, 0); --darkreader-inline-bgcolor: initial; --darkreader-inline-color: #e8e6e3;&quot;&gt;start&lt;/span&gt;&lt;/div&gt;" style="ellipse;whiteSpace=wrap;html=1;fillColor=#dae8fc;strokeColor=#6c8ebf;" parent="THpzJJgdX24z2KqZOQtY-387" vertex="1">
          <mxGeometry y="80" width="60" height="30" as="geometry" />
        </mxCell>
        <mxCell id="THpzJJgdX24z2KqZOQtY-296" value="&lt;div style=&quot;line-height: 100%;&quot;&gt;session&lt;/div&gt;&lt;div style=&quot;line-height: 100%;&quot;&gt;&lt;span data-darkreader-inline-color=&quot;&quot; data-darkreader-inline-bgcolor=&quot;&quot; style=&quot;background-color: initial; color: rgb(0, 0, 0); --darkreader-inline-bgcolor: initial; --darkreader-inline-color: #e8e6e3;&quot;&gt;end&lt;/span&gt;&lt;/div&gt;" style="ellipse;whiteSpace=wrap;html=1;fillColor=#dae8fc;strokeColor=#6c8ebf;" parent="THpzJJgdX24z2KqZOQtY-387" vertex="1">
          <mxGeometry x="150" y="80" width="60" height="30" as="geometry" />
        </mxCell>
        <mxCell id="THpzJJgdX24z2KqZOQtY-294" value="&lt;br&gt;" style="endArrow=open;html=1;rounded=0;exitX=0;exitY=1;exitDx=0;exitDy=0;fillColor=#dae8fc;strokeColor=#6c8ebf;entryX=0.5;entryY=0;entryDx=0;entryDy=0;dashed=1;dashPattern=1 2;endFill=0;" parent="THpzJJgdX24z2KqZOQtY-387" source="THpzJJgdX24z2KqZOQtY-238" target="THpzJJgdX24z2KqZOQtY-295" edge="1">
          <mxGeometry width="50" height="50" relative="1" as="geometry">
            <mxPoint x="30" y="50" as="sourcePoint" />
            <mxPoint x="30" y="70" as="targetPoint" />
            <mxPoint as="offset" />
          </mxGeometry>
        </mxCell>
        <mxCell id="THpzJJgdX24z2KqZOQtY-293" value="&lt;br&gt;" style="endArrow=open;html=1;rounded=0;exitX=1;exitY=1;exitDx=0;exitDy=0;fillColor=#dae8fc;strokeColor=#6c8ebf;entryX=0.5;entryY=0;entryDx=0;entryDy=0;dashed=1;dashPattern=1 2;endFill=0;" parent="THpzJJgdX24z2KqZOQtY-387" source="THpzJJgdX24z2KqZOQtY-238" target="THpzJJgdX24z2KqZOQtY-296" edge="1">
          <mxGeometry x="-0.2" width="50" height="50" relative="1" as="geometry">
            <mxPoint x="179.9999999999999" y="50" as="sourcePoint" />
            <mxPoint x="180" y="100" as="targetPoint" />
            <mxPoint as="offset" />
          </mxGeometry>
        </mxCell>
        <mxCell id="THpzJJgdX24z2KqZOQtY-402" value="" style="group" parent="1" vertex="1" connectable="0">
          <mxGeometry x="290" y="1210" width="310" height="110" as="geometry" />
        </mxCell>
        <mxCell id="THpzJJgdX24z2KqZOQtY-318" value="" style="group" parent="THpzJJgdX24z2KqZOQtY-402" vertex="1" connectable="0">
          <mxGeometry x="180" y="30" width="70" height="35" as="geometry" />
        </mxCell>
        <mxCell id="THpzJJgdX24z2KqZOQtY-167" value="busy" style="text;html=1;align=center;verticalAlign=middle;whiteSpace=wrap;rounded=0;fontColor=#FF6666;" parent="THpzJJgdX24z2KqZOQtY-318" vertex="1">
          <mxGeometry x="20" y="25" width="30" height="10" as="geometry" />
        </mxCell>
        <mxCell id="THpzJJgdX24z2KqZOQtY-168" value="diagnostic?" style="rounded=0;whiteSpace=wrap;html=1;" parent="THpzJJgdX24z2KqZOQtY-318" vertex="1">
          <mxGeometry width="70" height="20" as="geometry" />
        </mxCell>
        <mxCell id="THpzJJgdX24z2KqZOQtY-321" value="" style="group" parent="THpzJJgdX24z2KqZOQtY-402" vertex="1" connectable="0">
          <mxGeometry x="250" y="30" width="60" height="35" as="geometry" />
        </mxCell>
        <mxCell id="THpzJJgdX24z2KqZOQtY-169" value="pending?" style="rounded=0;whiteSpace=wrap;html=1;" parent="THpzJJgdX24z2KqZOQtY-321" vertex="1">
          <mxGeometry width="60" height="20" as="geometry" />
        </mxCell>
        <mxCell id="THpzJJgdX24z2KqZOQtY-173" value="nothing" style="text;html=1;strokeColor=none;fillColor=none;align=center;verticalAlign=middle;whiteSpace=wrap;rounded=0;" parent="THpzJJgdX24z2KqZOQtY-321" vertex="1">
          <mxGeometry x="15" y="25" width="30" height="10" as="geometry" />
        </mxCell>
        <mxCell id="THpzJJgdX24z2KqZOQtY-401" value="" style="group" parent="THpzJJgdX24z2KqZOQtY-402" vertex="1" connectable="0">
          <mxGeometry width="210" height="110" as="geometry" />
        </mxCell>
        <mxCell id="THpzJJgdX24z2KqZOQtY-159" value="session" style="rounded=0;whiteSpace=wrap;html=1;" parent="THpzJJgdX24z2KqZOQtY-401" vertex="1">
          <mxGeometry x="30" y="30" width="150" height="20" as="geometry" />
        </mxCell>
        <mxCell id="THpzJJgdX24z2KqZOQtY-163" value="" style="endArrow=classic;html=1;rounded=0;" parent="THpzJJgdX24z2KqZOQtY-401" edge="1">
          <mxGeometry width="50" height="50" relative="1" as="geometry">
            <mxPoint x="50" y="40" as="sourcePoint" />
            <mxPoint x="60" as="targetPoint" />
          </mxGeometry>
        </mxCell>
        <mxCell id="THpzJJgdX24z2KqZOQtY-164" value="" style="endArrow=classic;html=1;rounded=0;" parent="THpzJJgdX24z2KqZOQtY-401" edge="1">
          <mxGeometry width="50" height="50" relative="1" as="geometry">
            <mxPoint x="70" as="sourcePoint" />
            <mxPoint x="80" y="40" as="targetPoint" />
          </mxGeometry>
        </mxCell>
        <mxCell id="THpzJJgdX24z2KqZOQtY-165" value="" style="endArrow=classic;html=1;rounded=0;" parent="THpzJJgdX24z2KqZOQtY-401" edge="1">
          <mxGeometry width="50" height="50" relative="1" as="geometry">
            <mxPoint x="130" y="40" as="sourcePoint" />
            <mxPoint x="140" as="targetPoint" />
          </mxGeometry>
        </mxCell>
        <mxCell id="THpzJJgdX24z2KqZOQtY-166" value="" style="endArrow=classic;html=1;rounded=0;" parent="THpzJJgdX24z2KqZOQtY-401" edge="1">
          <mxGeometry width="50" height="50" relative="1" as="geometry">
            <mxPoint x="150" as="sourcePoint" />
            <mxPoint x="160" y="40" as="targetPoint" />
          </mxGeometry>
        </mxCell>
        <mxCell id="THpzJJgdX24z2KqZOQtY-176" value="&lt;p style=&quot;line-height: 100%;&quot;&gt;queued&lt;br data-darkreader-inline-border=&quot;&quot; style=&quot;border-color: var(--darkreader-border--border-color); --darkreader-inline-border: var(--darkreader-border--darkreader-border--border-color);&quot;&gt;diagnostic&lt;br&gt;&lt;/p&gt;" style="ellipse;whiteSpace=wrap;html=1;fillColor=#ffe6cc;strokeColor=#d79b00;" parent="THpzJJgdX24z2KqZOQtY-401" vertex="1">
          <mxGeometry x="80" y="65" width="70" height="40" as="geometry" />
        </mxCell>
        <mxCell id="THpzJJgdX24z2KqZOQtY-177" value="" style="endArrow=open;html=1;rounded=0;entryX=0.5;entryY=0;entryDx=0;entryDy=0;dashed=1;dashPattern=1 2;endFill=0;" parent="THpzJJgdX24z2KqZOQtY-401" target="THpzJJgdX24z2KqZOQtY-176" edge="1">
          <mxGeometry width="50" height="50" relative="1" as="geometry">
            <mxPoint x="170" y="40" as="sourcePoint" />
            <mxPoint x="280" y="50" as="targetPoint" />
          </mxGeometry>
        </mxCell>
        <mxCell id="THpzJJgdX24z2KqZOQtY-395" value="&lt;div style=&quot;line-height: 100%;&quot;&gt;session&lt;/div&gt;&lt;div style=&quot;line-height: 100%;&quot;&gt;&lt;span data-darkreader-inline-color=&quot;&quot; data-darkreader-inline-bgcolor=&quot;&quot; style=&quot;background-color: initial; color: rgb(0, 0, 0); --darkreader-inline-bgcolor: initial; --darkreader-inline-color: #e8e6e3;&quot;&gt;start&lt;/span&gt;&lt;/div&gt;" style="ellipse;whiteSpace=wrap;html=1;fillColor=#dae8fc;strokeColor=#6c8ebf;" parent="THpzJJgdX24z2KqZOQtY-401" vertex="1">
          <mxGeometry y="80" width="60" height="30" as="geometry" />
        </mxCell>
        <mxCell id="THpzJJgdX24z2KqZOQtY-396" value="&lt;div style=&quot;line-height: 100%;&quot;&gt;session&lt;/div&gt;&lt;div style=&quot;line-height: 100%;&quot;&gt;&lt;span data-darkreader-inline-color=&quot;&quot; data-darkreader-inline-bgcolor=&quot;&quot; style=&quot;background-color: initial; color: rgb(0, 0, 0); --darkreader-inline-bgcolor: initial; --darkreader-inline-color: #e8e6e3;&quot;&gt;end&lt;/span&gt;&lt;/div&gt;" style="ellipse;whiteSpace=wrap;html=1;fillColor=#dae8fc;strokeColor=#6c8ebf;" parent="THpzJJgdX24z2KqZOQtY-401" vertex="1">
          <mxGeometry x="150" y="80" width="60" height="30" as="geometry" />
        </mxCell>
        <mxCell id="THpzJJgdX24z2KqZOQtY-397" value="&lt;br&gt;" style="endArrow=open;html=1;rounded=0;fillColor=#dae8fc;strokeColor=#6c8ebf;entryX=0.5;entryY=0;entryDx=0;entryDy=0;exitX=0;exitY=1;exitDx=0;exitDy=0;dashed=1;dashPattern=1 2;endFill=0;" parent="THpzJJgdX24z2KqZOQtY-401" source="THpzJJgdX24z2KqZOQtY-159" target="THpzJJgdX24z2KqZOQtY-395" edge="1">
          <mxGeometry width="50" height="50" relative="1" as="geometry">
            <mxPoint x="30" y="50" as="sourcePoint" />
            <mxPoint x="30" y="70" as="targetPoint" />
            <mxPoint as="offset" />
            <Array as="points">
              <mxPoint x="30" y="60" />
            </Array>
          </mxGeometry>
        </mxCell>
        <mxCell id="THpzJJgdX24z2KqZOQtY-398" value="&lt;br&gt;" style="endArrow=open;html=1;rounded=0;fillColor=#dae8fc;strokeColor=#6c8ebf;entryX=0.5;entryY=0;entryDx=0;entryDy=0;exitX=1;exitY=1;exitDx=0;exitDy=0;dashed=1;dashPattern=1 2;endFill=0;" parent="THpzJJgdX24z2KqZOQtY-401" source="THpzJJgdX24z2KqZOQtY-159" target="THpzJJgdX24z2KqZOQtY-396" edge="1">
          <mxGeometry x="-0.2" width="50" height="50" relative="1" as="geometry">
            <mxPoint x="170" y="60" as="sourcePoint" />
            <mxPoint x="180" y="100" as="targetPoint" />
            <mxPoint as="offset" />
          </mxGeometry>
        </mxCell>
        <mxCell id="paoHkUJUoMEpzwN9Pbfl-2" value="" style="group" parent="1" vertex="1" connectable="0">
          <mxGeometry x="340" y="190" width="60" height="35" as="geometry" />
        </mxCell>
        <mxCell id="THpzJJgdX24z2KqZOQtY-48" value="pending?" style="rounded=0;whiteSpace=wrap;html=1;" parent="paoHkUJUoMEpzwN9Pbfl-2" vertex="1">
          <mxGeometry width="60" height="20" as="geometry" />
        </mxCell>
        <mxCell id="THpzJJgdX24z2KqZOQtY-55" value="nothing" style="text;html=1;strokeColor=none;fillColor=none;align=center;verticalAlign=middle;whiteSpace=wrap;rounded=0;" parent="paoHkUJUoMEpzwN9Pbfl-2" vertex="1">
          <mxGeometry x="2.5" y="25" width="55" height="10" as="geometry" />
        </mxCell>
        <mxCell id="paoHkUJUoMEpzwN9Pbfl-12" value="" style="endArrow=classic;html=1;rounded=0;entryX=0;entryY=0.5;entryDx=0;entryDy=0;exitX=1;exitY=0.5;exitDx=0;exitDy=0;" parent="1" source="THpzJJgdX24z2KqZOQtY-323" target="THpzJJgdX24z2KqZOQtY-136" edge="1">
          <mxGeometry width="50" height="50" relative="1" as="geometry">
            <mxPoint x="420" y="1090" as="sourcePoint" />
            <mxPoint x="640" y="1160" as="targetPoint" />
          </mxGeometry>
        </mxCell>
        <mxCell id="paoHkUJUoMEpzwN9Pbfl-14" value="" style="endArrow=classic;html=1;rounded=0;exitX=1;exitY=0.5;exitDx=0;exitDy=0;entryX=0;entryY=0.5;entryDx=0;entryDy=0;" parent="1" source="THpzJJgdX24z2KqZOQtY-377" target="THpzJJgdX24z2KqZOQtY-341" edge="1">
          <mxGeometry width="50" height="50" relative="1" as="geometry">
            <mxPoint x="760" y="1500" as="sourcePoint" />
            <mxPoint x="810" y="1450" as="targetPoint" />
          </mxGeometry>
        </mxCell>
        <mxCell id="paoHkUJUoMEpzwN9Pbfl-16" value="" style="endArrow=classic;html=1;rounded=0;exitX=1;exitY=0.5;exitDx=0;exitDy=0;entryX=0;entryY=0.5;entryDx=0;entryDy=0;" parent="1" source="THpzJJgdX24z2KqZOQtY-306" target="THpzJJgdX24z2KqZOQtY-44" edge="1">
          <mxGeometry width="50" height="50" relative="1" as="geometry">
            <mxPoint x="460" y="790" as="sourcePoint" />
            <mxPoint x="510" y="740" as="targetPoint" />
          </mxGeometry>
        </mxCell>
        <mxCell id="paoHkUJUoMEpzwN9Pbfl-18" value="" style="group" parent="1" vertex="1" connectable="0">
          <mxGeometry x="280" y="1050" width="140" height="115" as="geometry" />
        </mxCell>
        <mxCell id="THpzJJgdX24z2KqZOQtY-331" value="" style="group" parent="paoHkUJUoMEpzwN9Pbfl-18" vertex="1" connectable="0">
          <mxGeometry x="80" y="30" width="60" height="35" as="geometry" />
        </mxCell>
        <mxCell id="THpzJJgdX24z2KqZOQtY-323" value="pending?" style="rounded=0;whiteSpace=wrap;html=1;" parent="THpzJJgdX24z2KqZOQtY-331" vertex="1">
          <mxGeometry width="60" height="20" as="geometry" />
        </mxCell>
        <mxCell id="THpzJJgdX24z2KqZOQtY-324" value="&lt;font style=&quot;--darkreader-inline-color: #61ff61;&quot; data-darkreader-inline-color=&quot;&quot; color=&quot;#66ff66&quot;&gt;yes&lt;/font&gt;" style="text;html=1;strokeColor=none;fillColor=none;align=center;verticalAlign=middle;whiteSpace=wrap;rounded=0;" parent="THpzJJgdX24z2KqZOQtY-331" vertex="1">
          <mxGeometry x="15" y="25" width="30" height="10" as="geometry" />
        </mxCell>
        <mxCell id="THpzJJgdX24z2KqZOQtY-336" value="" style="group" parent="paoHkUJUoMEpzwN9Pbfl-18" vertex="1" connectable="0">
          <mxGeometry width="97.5" height="115" as="geometry" />
        </mxCell>
        <mxCell id="THpzJJgdX24z2KqZOQtY-131" value="yes" style="endArrow=classic;html=1;rounded=0;entryX=0;entryY=0.5;entryDx=0;entryDy=0;edgeStyle=orthogonalEdgeStyle;" parent="THpzJJgdX24z2KqZOQtY-336" target="THpzJJgdX24z2KqZOQtY-139" edge="1">
          <mxGeometry x="-0.3333" y="10" width="50" height="50" relative="1" as="geometry">
            <mxPoint as="sourcePoint" />
            <mxPoint y="30" as="targetPoint" />
            <Array as="points">
              <mxPoint />
              <mxPoint y="35" />
            </Array>
            <mxPoint as="offset" />
          </mxGeometry>
        </mxCell>
        <mxCell id="THpzJJgdX24z2KqZOQtY-139" value="diagnostic" style="rounded=0;whiteSpace=wrap;html=1;" parent="THpzJJgdX24z2KqZOQtY-336" vertex="1">
          <mxGeometry x="10" y="30" width="70" height="20" as="geometry" />
        </mxCell>
        <mxCell id="THpzJJgdX24z2KqZOQtY-277" value="&lt;p style=&quot;line-height: 100%;&quot;&gt;queued&lt;br&gt;pending&lt;/p&gt;" style="ellipse;whiteSpace=wrap;html=1;fillColor=#ffe6cc;strokeColor=#d79b00;" parent="THpzJJgdX24z2KqZOQtY-336" vertex="1">
          <mxGeometry x="47.25" y="70" width="55" height="45" as="geometry" />
        </mxCell>
        <mxCell id="THpzJJgdX24z2KqZOQtY-278" value="" style="endArrow=open;html=1;rounded=0;entryX=0.5;entryY=0;entryDx=0;entryDy=0;dashed=1;dashPattern=1 2;endFill=0;" parent="THpzJJgdX24z2KqZOQtY-336" target="THpzJJgdX24z2KqZOQtY-277" edge="1">
          <mxGeometry width="50" height="50" relative="1" as="geometry">
            <mxPoint x="75" y="40" as="sourcePoint" />
            <mxPoint x="185" y="50" as="targetPoint" />
          </mxGeometry>
        </mxCell>
        <mxCell id="THpzJJgdX24z2KqZOQtY-314" value="" style="group" parent="1" vertex="1" connectable="0">
          <mxGeometry x="800" y="1000" width="230" height="150" as="geometry" />
        </mxCell>
        <mxCell id="THpzJJgdX24z2KqZOQtY-183" value="busy" style="text;html=1;align=center;verticalAlign=middle;whiteSpace=wrap;rounded=0;fontColor=#FF6666;" parent="THpzJJgdX24z2KqZOQtY-314" vertex="1">
          <mxGeometry x="120" y="105" width="30" height="10" as="geometry" />
        </mxCell>
        <mxCell id="THpzJJgdX24z2KqZOQtY-184" value="pending?" style="rounded=0;whiteSpace=wrap;html=1;" parent="THpzJJgdX24z2KqZOQtY-314" vertex="1">
          <mxGeometry x="170" y="80" width="60" height="20" as="geometry" />
        </mxCell>
        <mxCell id="THpzJJgdX24z2KqZOQtY-185" value="session" style="rounded=0;whiteSpace=wrap;html=1;" parent="THpzJJgdX24z2KqZOQtY-314" vertex="1">
          <mxGeometry x="30" y="80" width="70" height="20" as="geometry" />
        </mxCell>
        <mxCell id="THpzJJgdX24z2KqZOQtY-186" value="" style="endArrow=classic;html=1;rounded=0;" parent="THpzJJgdX24z2KqZOQtY-314" edge="1">
          <mxGeometry width="50" height="50" relative="1" as="geometry">
            <mxPoint x="70" as="sourcePoint" />
            <mxPoint x="90" y="90" as="targetPoint" />
          </mxGeometry>
        </mxCell>
        <mxCell id="THpzJJgdX24z2KqZOQtY-187" value="diagnostic complete" style="endArrow=classic;html=1;rounded=0;" parent="THpzJJgdX24z2KqZOQtY-314" edge="1">
          <mxGeometry x="-0.2683" y="-27" width="50" height="50" relative="1" as="geometry">
            <mxPoint x="40" y="90" as="sourcePoint" />
            <mxPoint x="60" as="targetPoint" />
            <mxPoint as="offset" />
          </mxGeometry>
        </mxCell>
        <mxCell id="THpzJJgdX24z2KqZOQtY-191" value="diagnostic?" style="rounded=0;whiteSpace=wrap;html=1;" parent="THpzJJgdX24z2KqZOQtY-314" vertex="1">
          <mxGeometry x="100" y="80" width="70" height="20" as="geometry" />
        </mxCell>
        <mxCell id="THpzJJgdX24z2KqZOQtY-192" value="&lt;div style=&quot;line-height: 100%;&quot;&gt;session&lt;/div&gt;&lt;div style=&quot;line-height: 100%;&quot;&gt;&lt;span data-darkreader-inline-color=&quot;&quot; data-darkreader-inline-bgcolor=&quot;&quot; style=&quot;background-color: initial; color: rgb(0, 0, 0); --darkreader-inline-bgcolor: initial; --darkreader-inline-color: #e8e6e3;&quot;&gt;start&lt;/span&gt;&lt;/div&gt;" style="ellipse;whiteSpace=wrap;html=1;fillColor=#dae8fc;strokeColor=#6c8ebf;" parent="THpzJJgdX24z2KqZOQtY-314" vertex="1">
          <mxGeometry y="120" width="60" height="30" as="geometry" />
        </mxCell>
        <mxCell id="THpzJJgdX24z2KqZOQtY-193" value="&lt;div style=&quot;line-height: 100%;&quot;&gt;session&lt;/div&gt;&lt;div style=&quot;line-height: 100%;&quot;&gt;&lt;span data-darkreader-inline-color=&quot;&quot; data-darkreader-inline-bgcolor=&quot;&quot; style=&quot;background-color: initial; color: rgb(0, 0, 0); --darkreader-inline-bgcolor: initial; --darkreader-inline-color: #e8e6e3;&quot;&gt;end&lt;/span&gt;&lt;/div&gt;" style="ellipse;whiteSpace=wrap;html=1;fillColor=#dae8fc;strokeColor=#6c8ebf;" parent="THpzJJgdX24z2KqZOQtY-314" vertex="1">
          <mxGeometry x="70" y="120" width="60" height="30" as="geometry" />
        </mxCell>
        <mxCell id="THpzJJgdX24z2KqZOQtY-194" value="nothing" style="text;html=1;strokeColor=none;fillColor=none;align=center;verticalAlign=middle;whiteSpace=wrap;rounded=0;" parent="THpzJJgdX24z2KqZOQtY-314" vertex="1">
          <mxGeometry x="175" y="105" width="50" height="10" as="geometry" />
        </mxCell>
        <mxCell id="THpzJJgdX24z2KqZOQtY-196" value="" style="endArrow=classic;html=1;rounded=0;exitX=1;exitY=0.5;exitDx=0;exitDy=0;entryX=0.97;entryY=1.011;entryDx=0;entryDy=0;entryPerimeter=0;edgeStyle=orthogonalEdgeStyle;" parent="THpzJJgdX24z2KqZOQtY-314" edge="1">
          <mxGeometry width="50" height="50" relative="1" as="geometry">
            <mxPoint x="230" y="90" as="sourcePoint" />
            <mxPoint x="240" y="50" as="targetPoint" />
            <Array as="points">
              <mxPoint x="230" y="90" />
            </Array>
          </mxGeometry>
        </mxCell>
        <mxCell id="THpzJJgdX24z2KqZOQtY-180" value="" style="endArrow=open;html=1;rounded=0;exitX=0;exitY=1;exitDx=0;exitDy=0;fillColor=#dae8fc;strokeColor=#6c8ebf;entryX=0.5;entryY=0;entryDx=0;entryDy=0;dashed=1;dashPattern=1 2;endFill=0;" parent="THpzJJgdX24z2KqZOQtY-314" source="THpzJJgdX24z2KqZOQtY-185" target="THpzJJgdX24z2KqZOQtY-192" edge="1">
          <mxGeometry width="50" height="50" relative="1" as="geometry">
            <mxPoint x="735" y="815" as="sourcePoint" />
            <mxPoint x="730" y="835.0000000000001" as="targetPoint" />
            <mxPoint as="offset" />
          </mxGeometry>
        </mxCell>
        <mxCell id="THpzJJgdX24z2KqZOQtY-181" value="" style="endArrow=open;html=1;rounded=0;exitX=1;exitY=1;exitDx=0;exitDy=0;fillColor=#dae8fc;strokeColor=#6c8ebf;entryX=0.5;entryY=0;entryDx=0;entryDy=0;dashed=1;dashPattern=1 2;endFill=0;" parent="THpzJJgdX24z2KqZOQtY-314" source="THpzJJgdX24z2KqZOQtY-185" target="THpzJJgdX24z2KqZOQtY-193" edge="1">
          <mxGeometry width="50" height="50" relative="1" as="geometry">
            <mxPoint x="799.9999999999999" y="815" as="sourcePoint" />
            <mxPoint x="800" y="835.0000000000001" as="targetPoint" />
            <mxPoint as="offset" />
          </mxGeometry>
        </mxCell>
        <mxCell id="THpzJJgdX24z2KqZOQtY-374" value="" style="group" parent="1" vertex="1" connectable="0">
          <mxGeometry x="670" y="1050" width="140" height="110" as="geometry" />
        </mxCell>
        <mxCell id="THpzJJgdX24z2KqZOQtY-330" value="" style="group" parent="THpzJJgdX24z2KqZOQtY-374" vertex="1" connectable="0">
          <mxGeometry x="80" y="30" width="60" height="35" as="geometry" />
        </mxCell>
        <mxCell id="THpzJJgdX24z2KqZOQtY-328" value="pending?" style="rounded=0;whiteSpace=wrap;html=1;" parent="THpzJJgdX24z2KqZOQtY-330" vertex="1">
          <mxGeometry width="60" height="20" as="geometry" />
        </mxCell>
        <mxCell id="THpzJJgdX24z2KqZOQtY-329" value="&lt;font style=&quot;--darkreader-inline-color: #61ff61;&quot; data-darkreader-inline-color=&quot;&quot; color=&quot;#66ff66&quot;&gt;yes&lt;/font&gt;" style="text;html=1;strokeColor=none;fillColor=none;align=center;verticalAlign=middle;whiteSpace=wrap;rounded=0;" parent="THpzJJgdX24z2KqZOQtY-330" vertex="1">
          <mxGeometry x="15" y="25" width="30" height="10" as="geometry" />
        </mxCell>
        <mxCell id="THpzJJgdX24z2KqZOQtY-335" value="" style="group" parent="THpzJJgdX24z2KqZOQtY-374" vertex="1" connectable="0">
          <mxGeometry width="105" height="110" as="geometry" />
        </mxCell>
        <mxCell id="THpzJJgdX24z2KqZOQtY-188" value="diagnostic" style="rounded=0;whiteSpace=wrap;html=1;" parent="THpzJJgdX24z2KqZOQtY-335" vertex="1">
          <mxGeometry x="10" y="30" width="70" height="20" as="geometry" />
        </mxCell>
        <mxCell id="THpzJJgdX24z2KqZOQtY-195" value="yes" style="endArrow=classic;html=1;rounded=0;entryX=0;entryY=0.5;entryDx=0;entryDy=0;edgeStyle=orthogonalEdgeStyle;" parent="THpzJJgdX24z2KqZOQtY-335" edge="1">
          <mxGeometry x="-0.3333" y="10" width="50" height="50" relative="1" as="geometry">
            <mxPoint as="sourcePoint" />
            <mxPoint x="10" y="40" as="targetPoint" />
            <Array as="points">
              <mxPoint />
              <mxPoint y="35" />
            </Array>
            <mxPoint as="offset" />
          </mxGeometry>
        </mxCell>
        <mxCell id="THpzJJgdX24z2KqZOQtY-333" value="&lt;p style=&quot;line-height: 100%;&quot;&gt;queued&lt;br&gt;pending&lt;/p&gt;" style="ellipse;whiteSpace=wrap;html=1;fillColor=#ffe6cc;strokeColor=#d79b00;" parent="THpzJJgdX24z2KqZOQtY-335" vertex="1">
          <mxGeometry x="47.5" y="70" width="55" height="45" as="geometry" />
        </mxCell>
        <mxCell id="THpzJJgdX24z2KqZOQtY-334" value="" style="endArrow=open;html=1;rounded=0;entryX=0.5;entryY=0;entryDx=0;entryDy=0;dashed=1;dashPattern=1 2;endFill=0;" parent="THpzJJgdX24z2KqZOQtY-335" target="THpzJJgdX24z2KqZOQtY-333" edge="1">
          <mxGeometry width="50" height="50" relative="1" as="geometry">
            <mxPoint x="75" y="40" as="sourcePoint" />
            <mxPoint x="182.5" y="42.5" as="targetPoint" />
          </mxGeometry>
        </mxCell>
        <mxCell id="paoHkUJUoMEpzwN9Pbfl-13" value="" style="endArrow=classic;html=1;rounded=0;entryX=0;entryY=0.5;entryDx=0;entryDy=0;exitX=1;exitY=0.5;exitDx=0;exitDy=0;" parent="1" source="THpzJJgdX24z2KqZOQtY-328" target="THpzJJgdX24z2KqZOQtY-185" edge="1">
          <mxGeometry width="50" height="50" relative="1" as="geometry">
            <mxPoint x="820" y="1170" as="sourcePoint" />
            <mxPoint x="840" y="1170" as="targetPoint" />
          </mxGeometry>
        </mxCell>
        <mxCell id="paoHkUJUoMEpzwN9Pbfl-27" value="" style="group" parent="1" vertex="1" connectable="0">
          <mxGeometry x="410" y="1000" width="290" height="150" as="geometry" />
        </mxCell>
        <mxCell id="paoHkUJUoMEpzwN9Pbfl-20" value="" style="group" parent="paoHkUJUoMEpzwN9Pbfl-27" vertex="1" connectable="0">
          <mxGeometry x="100" y="80" width="70" height="35" as="geometry" />
        </mxCell>
        <mxCell id="THpzJJgdX24z2KqZOQtY-133" value="busy" style="text;html=1;align=center;verticalAlign=middle;whiteSpace=wrap;rounded=0;fontColor=#FF6666;" parent="paoHkUJUoMEpzwN9Pbfl-20" vertex="1">
          <mxGeometry x="20" y="25" width="30" height="10" as="geometry" />
        </mxCell>
        <mxCell id="THpzJJgdX24z2KqZOQtY-144" value="diagnostic?" style="rounded=0;whiteSpace=wrap;html=1;" parent="paoHkUJUoMEpzwN9Pbfl-20" vertex="1">
          <mxGeometry width="70" height="20" as="geometry" />
        </mxCell>
        <mxCell id="paoHkUJUoMEpzwN9Pbfl-22" value="" style="group" parent="paoHkUJUoMEpzwN9Pbfl-27" vertex="1" connectable="0">
          <mxGeometry x="170" y="80" width="70" height="35" as="geometry" />
        </mxCell>
        <mxCell id="THpzJJgdX24z2KqZOQtY-135" value="" style="endArrow=classic;html=1;rounded=0;exitX=1;exitY=0.5;exitDx=0;exitDy=0;edgeStyle=orthogonalEdgeStyle;" parent="paoHkUJUoMEpzwN9Pbfl-22" source="THpzJJgdX24z2KqZOQtY-134" edge="1">
          <mxGeometry width="50" height="50" relative="1" as="geometry">
            <mxPoint x="-300" y="-730" as="sourcePoint" />
            <mxPoint x="70" y="-30" as="targetPoint" />
            <Array as="points">
              <mxPoint x="70" y="10" />
            </Array>
          </mxGeometry>
        </mxCell>
        <mxCell id="paoHkUJUoMEpzwN9Pbfl-19" value="" style="group" parent="paoHkUJUoMEpzwN9Pbfl-22" vertex="1" connectable="0">
          <mxGeometry width="60" height="35" as="geometry" />
        </mxCell>
        <mxCell id="THpzJJgdX24z2KqZOQtY-134" value="pending?" style="rounded=0;whiteSpace=wrap;html=1;" parent="paoHkUJUoMEpzwN9Pbfl-19" vertex="1">
          <mxGeometry width="60" height="20" as="geometry" />
        </mxCell>
        <mxCell id="THpzJJgdX24z2KqZOQtY-172" value="nothing" style="text;html=1;strokeColor=none;fillColor=none;align=center;verticalAlign=middle;whiteSpace=wrap;rounded=0;" parent="paoHkUJUoMEpzwN9Pbfl-19" vertex="1">
          <mxGeometry x="5" y="25" width="50" height="10" as="geometry" />
        </mxCell>
        <mxCell id="paoHkUJUoMEpzwN9Pbfl-26" value="" style="group" parent="paoHkUJUoMEpzwN9Pbfl-27" vertex="1" connectable="0">
          <mxGeometry width="290" height="150" as="geometry" />
        </mxCell>
        <mxCell id="THpzJJgdX24z2KqZOQtY-146" value="&lt;div style=&quot;line-height: 100%;&quot;&gt;session&lt;/div&gt;&lt;div style=&quot;line-height: 100%;&quot;&gt;&lt;span data-darkreader-inline-color=&quot;&quot; data-darkreader-inline-bgcolor=&quot;&quot; style=&quot;background-color: initial; color: rgb(0, 0, 0); --darkreader-inline-bgcolor: initial; --darkreader-inline-color: #e8e6e3;&quot;&gt;start&lt;/span&gt;&lt;/div&gt;" style="ellipse;whiteSpace=wrap;html=1;fillColor=#dae8fc;strokeColor=#6c8ebf;" parent="paoHkUJUoMEpzwN9Pbfl-26" vertex="1">
          <mxGeometry y="120" width="60" height="30" as="geometry" />
        </mxCell>
        <mxCell id="THpzJJgdX24z2KqZOQtY-136" value="session" style="rounded=0;whiteSpace=wrap;html=1;" parent="paoHkUJUoMEpzwN9Pbfl-26" vertex="1">
          <mxGeometry x="30" y="80" width="70" height="20" as="geometry" />
        </mxCell>
        <mxCell id="THpzJJgdX24z2KqZOQtY-137" value="" style="endArrow=classic;html=1;rounded=0;" parent="paoHkUJUoMEpzwN9Pbfl-26" edge="1">
          <mxGeometry width="50" height="50" relative="1" as="geometry">
            <mxPoint x="70" as="sourcePoint" />
            <mxPoint x="90" y="90" as="targetPoint" />
          </mxGeometry>
        </mxCell>
        <mxCell id="THpzJJgdX24z2KqZOQtY-138" value="diagnostic complete" style="endArrow=classic;html=1;rounded=0;" parent="paoHkUJUoMEpzwN9Pbfl-26" edge="1">
          <mxGeometry x="-0.2683" y="-27" width="50" height="50" relative="1" as="geometry">
            <mxPoint x="40" y="90" as="sourcePoint" />
            <mxPoint x="60" as="targetPoint" />
            <mxPoint as="offset" />
          </mxGeometry>
        </mxCell>
        <mxCell id="THpzJJgdX24z2KqZOQtY-148" value="&lt;div style=&quot;line-height: 100%;&quot;&gt;session&lt;/div&gt;&lt;div style=&quot;line-height: 100%;&quot;&gt;&lt;span data-darkreader-inline-color=&quot;&quot; data-darkreader-inline-bgcolor=&quot;&quot; style=&quot;background-color: initial; color: rgb(0, 0, 0); --darkreader-inline-bgcolor: initial; --darkreader-inline-color: #e8e6e3;&quot;&gt;end&lt;/span&gt;&lt;/div&gt;" style="ellipse;whiteSpace=wrap;html=1;fillColor=#dae8fc;strokeColor=#6c8ebf;" parent="paoHkUJUoMEpzwN9Pbfl-26" vertex="1">
          <mxGeometry x="70" y="120" width="60" height="30" as="geometry" />
        </mxCell>
        <mxCell id="THpzJJgdX24z2KqZOQtY-118" value="" style="endArrow=open;html=1;rounded=0;exitX=0;exitY=1;exitDx=0;exitDy=0;fillColor=#dae8fc;strokeColor=#6c8ebf;entryX=0.5;entryY=0;entryDx=0;entryDy=0;dashed=1;dashPattern=1 2;endFill=0;" parent="paoHkUJUoMEpzwN9Pbfl-26" source="THpzJJgdX24z2KqZOQtY-136" target="THpzJJgdX24z2KqZOQtY-146" edge="1">
          <mxGeometry width="50" height="50" relative="1" as="geometry">
            <mxPoint x="805" y="1535" as="sourcePoint" />
            <mxPoint x="450" y="840" as="targetPoint" />
            <mxPoint as="offset" />
          </mxGeometry>
        </mxCell>
        <mxCell id="THpzJJgdX24z2KqZOQtY-119" value="" style="endArrow=open;html=1;rounded=0;exitX=1;exitY=1;exitDx=0;exitDy=0;fillColor=#dae8fc;strokeColor=#6c8ebf;entryX=0.5;entryY=0;entryDx=0;entryDy=0;dashed=1;dashPattern=1 2;endFill=0;" parent="paoHkUJUoMEpzwN9Pbfl-26" source="THpzJJgdX24z2KqZOQtY-136" target="THpzJJgdX24z2KqZOQtY-148" edge="1">
          <mxGeometry width="50" height="50" relative="1" as="geometry">
            <mxPoint x="869.9999999999999" y="1535" as="sourcePoint" />
            <mxPoint x="870" y="1555" as="targetPoint" />
            <mxPoint as="offset" />
          </mxGeometry>
        </mxCell>
        <mxCell id="paoHkUJUoMEpzwN9Pbfl-25" value="" style="group" parent="paoHkUJUoMEpzwN9Pbfl-26" vertex="1" connectable="0">
          <mxGeometry x="-140" width="420" height="130" as="geometry" />
        </mxCell>
        <mxCell id="THpzJJgdX24z2KqZOQtY-143" value="diagnostic" style="ellipse;whiteSpace=wrap;html=1;fillColor=#dae8fc;strokeColor=#6c8ebf;" parent="paoHkUJUoMEpzwN9Pbfl-25" vertex="1">
          <mxGeometry x="360" y="110" width="60" height="20" as="geometry" />
        </mxCell>
        <mxCell id="THpzJJgdX24z2KqZOQtY-129" value="diagnostic?" style="rounded=0;whiteSpace=wrap;html=1;" parent="paoHkUJUoMEpzwN9Pbfl-25" vertex="1">
          <mxGeometry y="30" width="390" height="20" as="geometry" />
        </mxCell>
        <mxCell id="THpzJJgdX24z2KqZOQtY-155" value="" style="rounded=1;whiteSpace=wrap;html=1;fillColor=#e1d5e7;strokeColor=#9673a6;" parent="paoHkUJUoMEpzwN9Pbfl-25" vertex="1">
          <mxGeometry x="30" y="35" width="50" height="10" as="geometry" />
        </mxCell>
        <mxCell id="THpzJJgdX24z2KqZOQtY-152" value="request" style="endArrow=classic;html=1;rounded=0;" parent="paoHkUJUoMEpzwN9Pbfl-25" edge="1">
          <mxGeometry x="-0.4" y="-18" width="50" height="50" relative="1" as="geometry">
            <mxPoint x="20" as="sourcePoint" />
            <mxPoint x="40" y="40" as="targetPoint" />
            <Array as="points">
              <mxPoint x="30" y="20" />
            </Array>
            <mxPoint as="offset" />
          </mxGeometry>
        </mxCell>
        <mxCell id="THpzJJgdX24z2KqZOQtY-153" value="response" style="endArrow=classic;html=1;rounded=0;" parent="paoHkUJUoMEpzwN9Pbfl-25" edge="1">
          <mxGeometry x="0.4" y="-18" width="50" height="50" relative="1" as="geometry">
            <mxPoint x="40" y="40" as="sourcePoint" />
            <mxPoint x="60" as="targetPoint" />
            <mxPoint as="offset" />
          </mxGeometry>
        </mxCell>
        <mxCell id="THpzJJgdX24z2KqZOQtY-140" value="&lt;br&gt;" style="endArrow=open;html=1;rounded=0;exitX=1;exitY=1;exitDx=0;exitDy=0;fillColor=#dae8fc;strokeColor=#6c8ebf;entryX=0.5;entryY=0;entryDx=0;entryDy=0;dashed=1;dashPattern=1 2;endFill=0;" parent="paoHkUJUoMEpzwN9Pbfl-25" source="THpzJJgdX24z2KqZOQtY-129" target="THpzJJgdX24z2KqZOQtY-143" edge="1">
          <mxGeometry x="-0.3333" width="50" height="50" relative="1" as="geometry">
            <mxPoint x="670" y="770" as="sourcePoint" />
            <mxPoint x="630" y="800" as="targetPoint" />
            <mxPoint as="offset" />
          </mxGeometry>
        </mxCell>
        <mxCell id="THpzJJgdX24z2KqZOQtY-147" value="&lt;div style=&quot;line-height: 100%;&quot;&gt;session&lt;/div&gt;&lt;div style=&quot;line-height: 100%;&quot;&gt;&lt;span data-darkreader-inline-color=&quot;&quot; data-darkreader-inline-bgcolor=&quot;&quot; style=&quot;background-color: initial; color: rgb(0, 0, 0); --darkreader-inline-bgcolor: initial; --darkreader-inline-color: #e8e6e3;&quot;&gt;end&lt;/span&gt;&lt;/div&gt;" style="ellipse;whiteSpace=wrap;html=1;fillColor=#dae8fc;strokeColor=#6c8ebf;" parent="paoHkUJUoMEpzwN9Pbfl-25" vertex="1">
          <mxGeometry x="-30" y="100" width="60" height="30" as="geometry" />
        </mxCell>
        <mxCell id="paoHkUJUoMEpzwN9Pbfl-31" value="" style="group" parent="1" vertex="1" connectable="0">
          <mxGeometry x="1050" y="1030" width="60" height="35" as="geometry" />
        </mxCell>
        <mxCell id="paoHkUJUoMEpzwN9Pbfl-7" value="pending?" style="rounded=0;whiteSpace=wrap;html=1;" parent="paoHkUJUoMEpzwN9Pbfl-31" vertex="1">
          <mxGeometry width="60" height="20" as="geometry" />
        </mxCell>
        <mxCell id="paoHkUJUoMEpzwN9Pbfl-8" value="nothing" style="text;html=1;strokeColor=none;fillColor=none;align=center;verticalAlign=middle;whiteSpace=wrap;rounded=0;" parent="paoHkUJUoMEpzwN9Pbfl-31" vertex="1">
          <mxGeometry x="2.5" y="25" width="55" height="10" as="geometry" />
        </mxCell>
        <mxCell id="paoHkUJUoMEpzwN9Pbfl-32" value="" style="group" parent="1" vertex="1" connectable="0">
          <mxGeometry x="660" y="1030" width="420" height="100" as="geometry" />
        </mxCell>
        <mxCell id="THpzJJgdX24z2KqZOQtY-182" value="diagnostic?" style="rounded=0;whiteSpace=wrap;html=1;" parent="paoHkUJUoMEpzwN9Pbfl-32" vertex="1">
          <mxGeometry width="390" height="20" as="geometry" />
        </mxCell>
        <mxCell id="THpzJJgdX24z2KqZOQtY-190" value="diagnostic" style="ellipse;whiteSpace=wrap;html=1;fillColor=#dae8fc;strokeColor=#6c8ebf;" parent="paoHkUJUoMEpzwN9Pbfl-32" vertex="1">
          <mxGeometry x="360" y="80" width="60" height="20" as="geometry" />
        </mxCell>
        <mxCell id="THpzJJgdX24z2KqZOQtY-189" value="&lt;br&gt;" style="endArrow=open;html=1;rounded=0;exitX=1;exitY=1;exitDx=0;exitDy=0;fillColor=#dae8fc;strokeColor=#6c8ebf;entryX=0.5;entryY=0;entryDx=0;entryDy=0;dashed=1;dashPattern=1 2;endFill=0;" parent="paoHkUJUoMEpzwN9Pbfl-32" source="THpzJJgdX24z2KqZOQtY-182" target="THpzJJgdX24z2KqZOQtY-190" edge="1">
          <mxGeometry x="-0.3333" width="50" height="50" relative="1" as="geometry">
            <mxPoint x="1720" y="1520" as="sourcePoint" />
            <mxPoint x="1650" y="1550" as="targetPoint" />
            <mxPoint as="offset" />
          </mxGeometry>
        </mxCell>
        <mxCell id="paoHkUJUoMEpzwN9Pbfl-38" value="" style="group" parent="1" vertex="1" connectable="0">
          <mxGeometry x="810" y="1440" width="230" height="150" as="geometry" />
        </mxCell>
        <mxCell id="paoHkUJUoMEpzwN9Pbfl-35" value="" style="group" parent="paoHkUJUoMEpzwN9Pbfl-38" vertex="1" connectable="0">
          <mxGeometry x="170" y="80" width="60" height="35" as="geometry" />
        </mxCell>
        <mxCell id="THpzJJgdX24z2KqZOQtY-340" value="pending?" style="rounded=0;whiteSpace=wrap;html=1;" parent="paoHkUJUoMEpzwN9Pbfl-35" vertex="1">
          <mxGeometry width="60" height="20" as="geometry" />
        </mxCell>
        <mxCell id="THpzJJgdX24z2KqZOQtY-347" value="nothing" style="text;html=1;strokeColor=none;fillColor=none;align=center;verticalAlign=middle;whiteSpace=wrap;rounded=0;" parent="paoHkUJUoMEpzwN9Pbfl-35" vertex="1">
          <mxGeometry x="15" y="25" width="30" height="10" as="geometry" />
        </mxCell>
        <mxCell id="THpzJJgdX24z2KqZOQtY-348" value="" style="endArrow=classic;html=1;rounded=0;exitX=1;exitY=0.5;exitDx=0;exitDy=0;entryX=0.97;entryY=1.011;entryDx=0;entryDy=0;entryPerimeter=0;edgeStyle=orthogonalEdgeStyle;" parent="paoHkUJUoMEpzwN9Pbfl-35" edge="1">
          <mxGeometry width="50" height="50" relative="1" as="geometry">
            <mxPoint x="60" y="10" as="sourcePoint" />
            <mxPoint x="70" y="-30" as="targetPoint" />
            <Array as="points">
              <mxPoint x="60" y="10" />
            </Array>
          </mxGeometry>
        </mxCell>
        <mxCell id="paoHkUJUoMEpzwN9Pbfl-36" value="" style="group" parent="paoHkUJUoMEpzwN9Pbfl-38" vertex="1" connectable="0">
          <mxGeometry x="100" y="80" width="70" height="35" as="geometry" />
        </mxCell>
        <mxCell id="THpzJJgdX24z2KqZOQtY-339" value="busy" style="text;html=1;align=center;verticalAlign=middle;whiteSpace=wrap;rounded=0;fontColor=#FF6666;" parent="paoHkUJUoMEpzwN9Pbfl-36" vertex="1">
          <mxGeometry x="20" y="25" width="30" height="10" as="geometry" />
        </mxCell>
        <mxCell id="THpzJJgdX24z2KqZOQtY-344" value="diagnostic?" style="rounded=0;whiteSpace=wrap;html=1;" parent="paoHkUJUoMEpzwN9Pbfl-36" vertex="1">
          <mxGeometry width="70" height="20" as="geometry" />
        </mxCell>
        <mxCell id="paoHkUJUoMEpzwN9Pbfl-37" value="" style="group" parent="paoHkUJUoMEpzwN9Pbfl-38" vertex="1" connectable="0">
          <mxGeometry width="130" height="150" as="geometry" />
        </mxCell>
        <mxCell id="THpzJJgdX24z2KqZOQtY-345" value="&lt;div style=&quot;line-height: 100%;&quot;&gt;session&lt;/div&gt;&lt;div style=&quot;line-height: 100%;&quot;&gt;&lt;span data-darkreader-inline-color=&quot;&quot; data-darkreader-inline-bgcolor=&quot;&quot; style=&quot;background-color: initial; color: rgb(0, 0, 0); --darkreader-inline-bgcolor: initial; --darkreader-inline-color: #e8e6e3;&quot;&gt;start&lt;/span&gt;&lt;/div&gt;" style="ellipse;whiteSpace=wrap;html=1;fillColor=#dae8fc;strokeColor=#6c8ebf;" parent="paoHkUJUoMEpzwN9Pbfl-37" vertex="1">
          <mxGeometry y="120" width="60" height="30" as="geometry" />
        </mxCell>
        <mxCell id="THpzJJgdX24z2KqZOQtY-341" value="session" style="rounded=0;whiteSpace=wrap;html=1;" parent="paoHkUJUoMEpzwN9Pbfl-37" vertex="1">
          <mxGeometry x="30" y="80" width="70" height="20" as="geometry" />
        </mxCell>
        <mxCell id="THpzJJgdX24z2KqZOQtY-342" value="" style="endArrow=classic;html=1;rounded=0;" parent="paoHkUJUoMEpzwN9Pbfl-37" edge="1">
          <mxGeometry width="50" height="50" relative="1" as="geometry">
            <mxPoint x="70" as="sourcePoint" />
            <mxPoint x="90" y="90" as="targetPoint" />
          </mxGeometry>
        </mxCell>
        <mxCell id="THpzJJgdX24z2KqZOQtY-343" value="diagnostic complete" style="endArrow=classic;html=1;rounded=0;" parent="paoHkUJUoMEpzwN9Pbfl-37" edge="1">
          <mxGeometry x="-0.2683" y="-27" width="50" height="50" relative="1" as="geometry">
            <mxPoint x="40" y="90" as="sourcePoint" />
            <mxPoint x="60" as="targetPoint" />
            <mxPoint as="offset" />
          </mxGeometry>
        </mxCell>
        <mxCell id="THpzJJgdX24z2KqZOQtY-346" value="&lt;div style=&quot;line-height: 100%;&quot;&gt;session&lt;/div&gt;&lt;div style=&quot;line-height: 100%;&quot;&gt;&lt;span data-darkreader-inline-color=&quot;&quot; data-darkreader-inline-bgcolor=&quot;&quot; style=&quot;background-color: initial; color: rgb(0, 0, 0); --darkreader-inline-bgcolor: initial; --darkreader-inline-color: #e8e6e3;&quot;&gt;end&lt;/span&gt;&lt;/div&gt;" style="ellipse;whiteSpace=wrap;html=1;fillColor=#dae8fc;strokeColor=#6c8ebf;" parent="paoHkUJUoMEpzwN9Pbfl-37" vertex="1">
          <mxGeometry x="70" y="120" width="60" height="30" as="geometry" />
        </mxCell>
        <mxCell id="THpzJJgdX24z2KqZOQtY-349" value="" style="endArrow=open;html=1;rounded=0;exitX=0;exitY=1;exitDx=0;exitDy=0;fillColor=#dae8fc;strokeColor=#6c8ebf;entryX=0.5;entryY=0;entryDx=0;entryDy=0;dashed=1;dashPattern=1 2;endFill=0;" parent="paoHkUJUoMEpzwN9Pbfl-37" source="THpzJJgdX24z2KqZOQtY-341" target="THpzJJgdX24z2KqZOQtY-345" edge="1">
          <mxGeometry width="50" height="50" relative="1" as="geometry">
            <mxPoint x="755" y="815" as="sourcePoint" />
            <mxPoint x="50" y="120" as="targetPoint" />
            <mxPoint as="offset" />
          </mxGeometry>
        </mxCell>
        <mxCell id="THpzJJgdX24z2KqZOQtY-350" value="" style="endArrow=open;html=1;rounded=0;exitX=1;exitY=1;exitDx=0;exitDy=0;fillColor=#dae8fc;strokeColor=#6c8ebf;entryX=0.5;entryY=0;entryDx=0;entryDy=0;dashed=1;dashPattern=1 2;endFill=0;" parent="paoHkUJUoMEpzwN9Pbfl-37" source="THpzJJgdX24z2KqZOQtY-341" target="THpzJJgdX24z2KqZOQtY-346" edge="1">
          <mxGeometry width="50" height="50" relative="1" as="geometry">
            <mxPoint x="819.9999999999999" y="815" as="sourcePoint" />
            <mxPoint x="820" y="835.0000000000001" as="targetPoint" />
            <mxPoint as="offset" />
          </mxGeometry>
        </mxCell>
        <mxCell id="paoHkUJUoMEpzwN9Pbfl-39" value="" style="group" parent="1" vertex="1" connectable="0">
          <mxGeometry x="670" y="1470" width="460" height="100" as="geometry" />
        </mxCell>
        <mxCell id="THpzJJgdX24z2KqZOQtY-258" value="diagnostic?" style="rounded=0;whiteSpace=wrap;html=1;" parent="paoHkUJUoMEpzwN9Pbfl-39" vertex="1">
          <mxGeometry width="390" height="20" as="geometry" />
        </mxCell>
        <mxCell id="THpzJJgdX24z2KqZOQtY-266" value="diagnostic" style="ellipse;whiteSpace=wrap;html=1;fillColor=#dae8fc;strokeColor=#6c8ebf;" parent="paoHkUJUoMEpzwN9Pbfl-39" vertex="1">
          <mxGeometry x="360" y="80" width="60" height="20" as="geometry" />
        </mxCell>
        <mxCell id="THpzJJgdX24z2KqZOQtY-265" value="&lt;br&gt;" style="endArrow=open;html=1;rounded=0;exitX=1;exitY=1;exitDx=0;exitDy=0;fillColor=#dae8fc;strokeColor=#6c8ebf;entryX=0.5;entryY=0;entryDx=0;entryDy=0;dashed=1;dashPattern=1 2;endFill=0;" parent="paoHkUJUoMEpzwN9Pbfl-39" source="THpzJJgdX24z2KqZOQtY-258" target="THpzJJgdX24z2KqZOQtY-266" edge="1">
          <mxGeometry x="-0.3333" width="50" height="50" relative="1" as="geometry">
            <mxPoint x="1070" y="1210" as="sourcePoint" />
            <mxPoint x="1070" y="1240" as="targetPoint" />
            <mxPoint as="offset" />
          </mxGeometry>
        </mxCell>
        <mxCell id="paoHkUJUoMEpzwN9Pbfl-9" value="" style="group" parent="paoHkUJUoMEpzwN9Pbfl-39" vertex="1" connectable="0">
          <mxGeometry x="390" width="60" height="35" as="geometry" />
        </mxCell>
        <mxCell id="paoHkUJUoMEpzwN9Pbfl-10" value="pending?" style="rounded=0;whiteSpace=wrap;html=1;" parent="paoHkUJUoMEpzwN9Pbfl-9" vertex="1">
          <mxGeometry width="60" height="20" as="geometry" />
        </mxCell>
        <mxCell id="paoHkUJUoMEpzwN9Pbfl-11" value="nothing" style="text;html=1;strokeColor=none;fillColor=none;align=center;verticalAlign=middle;whiteSpace=wrap;rounded=0;" parent="paoHkUJUoMEpzwN9Pbfl-9" vertex="1">
          <mxGeometry x="2.5" y="25" width="55" height="10" as="geometry" />
        </mxCell>
        <mxCell id="paoHkUJUoMEpzwN9Pbfl-44" value="" style="group" parent="1" vertex="1" connectable="0">
          <mxGeometry x="270" y="710" width="460" height="120" as="geometry" />
        </mxCell>
        <mxCell id="paoHkUJUoMEpzwN9Pbfl-3" value="" style="group" parent="paoHkUJUoMEpzwN9Pbfl-44" vertex="1" connectable="0">
          <mxGeometry x="390" width="60" height="35" as="geometry" />
        </mxCell>
        <mxCell id="paoHkUJUoMEpzwN9Pbfl-4" value="pending?" style="rounded=0;whiteSpace=wrap;html=1;" parent="paoHkUJUoMEpzwN9Pbfl-3" vertex="1">
          <mxGeometry width="60" height="20" as="geometry" />
        </mxCell>
        <mxCell id="paoHkUJUoMEpzwN9Pbfl-5" value="nothing" style="text;html=1;strokeColor=none;fillColor=none;align=center;verticalAlign=middle;whiteSpace=wrap;rounded=0;" parent="paoHkUJUoMEpzwN9Pbfl-3" vertex="1">
          <mxGeometry x="2.5" y="25" width="55" height="10" as="geometry" />
        </mxCell>
        <mxCell id="paoHkUJUoMEpzwN9Pbfl-43" value="" style="group" parent="paoHkUJUoMEpzwN9Pbfl-44" vertex="1" connectable="0">
          <mxGeometry x="140" y="-30" width="240" height="150" as="geometry" />
        </mxCell>
        <mxCell id="paoHkUJUoMEpzwN9Pbfl-40" value="" style="group" parent="paoHkUJUoMEpzwN9Pbfl-43" vertex="1" connectable="0">
          <mxGeometry x="170" y="50" width="70" height="65" as="geometry" />
        </mxCell>
        <mxCell id="THpzJJgdX24z2KqZOQtY-63" value="pending?" style="rounded=0;whiteSpace=wrap;html=1;" parent="paoHkUJUoMEpzwN9Pbfl-40" vertex="1">
          <mxGeometry y="30" width="60" height="20" as="geometry" />
        </mxCell>
        <mxCell id="THpzJJgdX24z2KqZOQtY-65" value="" style="endArrow=classic;html=1;rounded=0;exitX=1;exitY=0.5;exitDx=0;exitDy=0;edgeStyle=orthogonalEdgeStyle;" parent="paoHkUJUoMEpzwN9Pbfl-40" source="THpzJJgdX24z2KqZOQtY-63" edge="1">
          <mxGeometry width="50" height="50" relative="1" as="geometry">
            <mxPoint x="-22.5" y="20" as="sourcePoint" />
            <mxPoint x="70" as="targetPoint" />
            <Array as="points">
              <mxPoint x="70" y="40" />
              <mxPoint x="70" />
            </Array>
          </mxGeometry>
        </mxCell>
        <mxCell id="THpzJJgdX24z2KqZOQtY-390" value="nothing" style="text;html=1;strokeColor=none;fillColor=none;align=center;verticalAlign=middle;whiteSpace=wrap;rounded=0;" parent="paoHkUJUoMEpzwN9Pbfl-40" vertex="1">
          <mxGeometry x="2.5" y="55" width="55" height="10" as="geometry" />
        </mxCell>
        <mxCell id="paoHkUJUoMEpzwN9Pbfl-41" value="" style="group" parent="paoHkUJUoMEpzwN9Pbfl-43" vertex="1" connectable="0">
          <mxGeometry x="100" y="80" width="70" height="35" as="geometry" />
        </mxCell>
        <mxCell id="THpzJJgdX24z2KqZOQtY-58" value="busy" style="text;html=1;align=center;verticalAlign=middle;whiteSpace=wrap;rounded=0;fontColor=#FF6666;" parent="paoHkUJUoMEpzwN9Pbfl-41" vertex="1">
          <mxGeometry x="20" y="25" width="30" height="10" as="geometry" />
        </mxCell>
        <mxCell id="THpzJJgdX24z2KqZOQtY-51" value="diagnostic?" style="rounded=0;whiteSpace=wrap;html=1;" parent="paoHkUJUoMEpzwN9Pbfl-41" vertex="1">
          <mxGeometry width="70" height="20" as="geometry" />
        </mxCell>
        <mxCell id="paoHkUJUoMEpzwN9Pbfl-42" value="" style="group" parent="paoHkUJUoMEpzwN9Pbfl-43" vertex="1" connectable="0">
          <mxGeometry width="130" height="150" as="geometry" />
        </mxCell>
        <mxCell id="THpzJJgdX24z2KqZOQtY-44" value="session" style="rounded=0;whiteSpace=wrap;html=1;" parent="paoHkUJUoMEpzwN9Pbfl-42" vertex="1">
          <mxGeometry x="30" y="80" width="70" height="20" as="geometry" />
        </mxCell>
        <mxCell id="THpzJJgdX24z2KqZOQtY-108" value="&lt;div style=&quot;line-height: 100%;&quot;&gt;session&lt;/div&gt;&lt;div style=&quot;line-height: 100%;&quot;&gt;&lt;span data-darkreader-inline-color=&quot;&quot; data-darkreader-inline-bgcolor=&quot;&quot; style=&quot;background-color: initial; color: rgb(0, 0, 0); --darkreader-inline-bgcolor: initial; --darkreader-inline-color: #e8e6e3;&quot;&gt;start&lt;/span&gt;&lt;/div&gt;" style="ellipse;whiteSpace=wrap;html=1;fillColor=#dae8fc;strokeColor=#6c8ebf;" parent="paoHkUJUoMEpzwN9Pbfl-42" vertex="1">
          <mxGeometry y="120" width="60" height="30" as="geometry" />
        </mxCell>
        <mxCell id="THpzJJgdX24z2KqZOQtY-110" value="&lt;div style=&quot;line-height: 100%;&quot;&gt;session&lt;/div&gt;&lt;div style=&quot;line-height: 100%;&quot;&gt;&lt;span data-darkreader-inline-color=&quot;&quot; data-darkreader-inline-bgcolor=&quot;&quot; style=&quot;background-color: initial; color: rgb(0, 0, 0); --darkreader-inline-bgcolor: initial; --darkreader-inline-color: #e8e6e3;&quot;&gt;end&lt;/span&gt;&lt;/div&gt;" style="ellipse;whiteSpace=wrap;html=1;fillColor=#dae8fc;strokeColor=#6c8ebf;" parent="paoHkUJUoMEpzwN9Pbfl-42" vertex="1">
          <mxGeometry x="70" y="120" width="60" height="30" as="geometry" />
        </mxCell>
        <mxCell id="THpzJJgdX24z2KqZOQtY-310" value="" style="endArrow=classic;html=1;rounded=0;" parent="paoHkUJUoMEpzwN9Pbfl-42" edge="1">
          <mxGeometry width="50" height="50" relative="1" as="geometry">
            <mxPoint x="70" as="sourcePoint" />
            <mxPoint x="90" y="90" as="targetPoint" />
          </mxGeometry>
        </mxCell>
        <mxCell id="THpzJJgdX24z2KqZOQtY-311" value="diagnostic complete" style="endArrow=classic;html=1;rounded=0;" parent="paoHkUJUoMEpzwN9Pbfl-42" edge="1">
          <mxGeometry x="-0.2683" y="-27" width="50" height="50" relative="1" as="geometry">
            <mxPoint x="40" y="90" as="sourcePoint" />
            <mxPoint x="60" as="targetPoint" />
            <mxPoint as="offset" />
          </mxGeometry>
        </mxCell>
        <mxCell id="THpzJJgdX24z2KqZOQtY-80" value="" style="endArrow=open;html=1;rounded=0;exitX=0;exitY=1;exitDx=0;exitDy=0;fillColor=#dae8fc;strokeColor=#6c8ebf;entryX=0.5;entryY=0;entryDx=0;entryDy=0;dashed=1;dashPattern=1 2;endFill=0;" parent="paoHkUJUoMEpzwN9Pbfl-42" source="THpzJJgdX24z2KqZOQtY-44" target="THpzJJgdX24z2KqZOQtY-108" edge="1">
          <mxGeometry width="50" height="50" relative="1" as="geometry">
            <mxPoint x="432.5" y="495" as="sourcePoint" />
            <mxPoint x="427.5" y="515.0000000000001" as="targetPoint" />
            <mxPoint as="offset" />
          </mxGeometry>
        </mxCell>
        <mxCell id="THpzJJgdX24z2KqZOQtY-79" value="" style="endArrow=open;html=1;rounded=0;exitX=1;exitY=1;exitDx=0;exitDy=0;fillColor=#dae8fc;strokeColor=#6c8ebf;entryX=0.5;entryY=0;entryDx=0;entryDy=0;dashed=1;dashPattern=1 2;endFill=0;" parent="paoHkUJUoMEpzwN9Pbfl-42" source="THpzJJgdX24z2KqZOQtY-44" target="THpzJJgdX24z2KqZOQtY-110" edge="1">
          <mxGeometry width="50" height="50" relative="1" as="geometry">
            <mxPoint x="497.4999999999999" y="495" as="sourcePoint" />
            <mxPoint x="497.5" y="515.0000000000001" as="targetPoint" />
            <mxPoint as="offset" />
          </mxGeometry>
        </mxCell>
        <mxCell id="paoHkUJUoMEpzwN9Pbfl-48" value="" style="group" parent="paoHkUJUoMEpzwN9Pbfl-44" vertex="1" connectable="0">
          <mxGeometry width="420" height="105" as="geometry" />
        </mxCell>
        <mxCell id="THpzJJgdX24z2KqZOQtY-37" value="diagnostic?" style="rounded=0;whiteSpace=wrap;html=1;" parent="paoHkUJUoMEpzwN9Pbfl-48" vertex="1">
          <mxGeometry width="390" height="20" as="geometry" />
        </mxCell>
        <mxCell id="THpzJJgdX24z2KqZOQtY-99" value="diagnostic" style="ellipse;whiteSpace=wrap;html=1;fillColor=#dae8fc;strokeColor=#6c8ebf;" parent="paoHkUJUoMEpzwN9Pbfl-48" vertex="1">
          <mxGeometry x="360" y="85" width="60" height="20" as="geometry" />
        </mxCell>
        <mxCell id="THpzJJgdX24z2KqZOQtY-76" value="&lt;br&gt;" style="endArrow=open;html=1;rounded=0;exitX=1;exitY=1;exitDx=0;exitDy=0;fillColor=#dae8fc;strokeColor=#6c8ebf;entryX=0.5;entryY=0;entryDx=0;entryDy=0;dashed=1;dashPattern=1 2;endFill=0;" parent="paoHkUJUoMEpzwN9Pbfl-48" source="THpzJJgdX24z2KqZOQtY-37" target="THpzJJgdX24z2KqZOQtY-99" edge="1">
          <mxGeometry x="-0.3333" width="50" height="50" relative="1" as="geometry">
            <mxPoint x="390" y="20" as="sourcePoint" />
            <mxPoint x="350" y="50" as="targetPoint" />
            <mxPoint as="offset" />
          </mxGeometry>
        </mxCell>
        <mxCell id="paoHkUJUoMEpzwN9Pbfl-47" value="" style="group" parent="1" vertex="1" connectable="0">
          <mxGeometry x="280" y="730" width="140" height="115" as="geometry" />
        </mxCell>
        <mxCell id="THpzJJgdX24z2KqZOQtY-41" value="yes" style="endArrow=classic;html=1;rounded=0;entryX=0;entryY=0.5;entryDx=0;entryDy=0;edgeStyle=orthogonalEdgeStyle;" parent="paoHkUJUoMEpzwN9Pbfl-47" target="THpzJJgdX24z2KqZOQtY-42" edge="1">
          <mxGeometry x="-0.3333" y="10" width="50" height="50" relative="1" as="geometry">
            <mxPoint as="sourcePoint" />
            <mxPoint y="30" as="targetPoint" />
            <Array as="points">
              <mxPoint />
              <mxPoint y="35" />
            </Array>
            <mxPoint as="offset" />
          </mxGeometry>
        </mxCell>
        <mxCell id="THpzJJgdX24z2KqZOQtY-42" value="diagnostic" style="rounded=0;whiteSpace=wrap;html=1;" parent="paoHkUJUoMEpzwN9Pbfl-47" vertex="1">
          <mxGeometry x="10" y="30" width="70" height="20" as="geometry" />
        </mxCell>
        <mxCell id="THpzJJgdX24z2KqZOQtY-301" value="" style="endArrow=open;html=1;rounded=0;entryX=0.5;entryY=0;entryDx=0;entryDy=0;dashed=1;dashPattern=1 2;endFill=0;" parent="paoHkUJUoMEpzwN9Pbfl-47" target="THpzJJgdX24z2KqZOQtY-392" edge="1">
          <mxGeometry width="50" height="50" relative="1" as="geometry">
            <mxPoint x="75" y="40" as="sourcePoint" />
            <mxPoint x="70" y="75" as="targetPoint" />
          </mxGeometry>
        </mxCell>
        <mxCell id="THpzJJgdX24z2KqZOQtY-306" value="pending?" style="rounded=0;whiteSpace=wrap;html=1;" parent="paoHkUJUoMEpzwN9Pbfl-47" vertex="1">
          <mxGeometry x="80" y="30" width="60" height="20" as="geometry" />
        </mxCell>
        <mxCell id="THpzJJgdX24z2KqZOQtY-325" value="&lt;font style=&quot;--darkreader-inline-color: #61ff61;&quot; data-darkreader-inline-color=&quot;&quot; color=&quot;#66ff66&quot;&gt;yes&lt;/font&gt;" style="text;html=1;strokeColor=none;fillColor=none;align=center;verticalAlign=middle;whiteSpace=wrap;rounded=0;" parent="paoHkUJUoMEpzwN9Pbfl-47" vertex="1">
          <mxGeometry x="95" y="55" width="30" height="10" as="geometry" />
        </mxCell>
        <mxCell id="THpzJJgdX24z2KqZOQtY-392" value="&lt;p style=&quot;line-height: 100%;&quot;&gt;queued&lt;br&gt;pending&lt;/p&gt;" style="ellipse;whiteSpace=wrap;html=1;fillColor=#ffe6cc;strokeColor=#d79b00;" parent="paoHkUJUoMEpzwN9Pbfl-47" vertex="1">
          <mxGeometry x="47.5" y="70" width="55" height="45" as="geometry" />
        </mxCell>
        <mxCell id="THpzJJgdX24z2KqZOQtY-373" value="" style="group" parent="1" vertex="1" connectable="0">
          <mxGeometry x="280" y="1490" width="170" height="120" as="geometry" />
        </mxCell>
        <mxCell id="THpzJJgdX24z2KqZOQtY-367" value="" style="group" parent="THpzJJgdX24z2KqZOQtY-373" vertex="1" connectable="0">
          <mxGeometry width="97.5" height="120" as="geometry" />
        </mxCell>
        <mxCell id="THpzJJgdX24z2KqZOQtY-213" value="yes" style="endArrow=classic;html=1;rounded=0;entryX=0;entryY=0.5;entryDx=0;entryDy=0;edgeStyle=orthogonalEdgeStyle;" parent="THpzJJgdX24z2KqZOQtY-367" target="THpzJJgdX24z2KqZOQtY-221" edge="1">
          <mxGeometry x="-0.3333" y="10" width="50" height="50" relative="1" as="geometry">
            <mxPoint as="sourcePoint" />
            <mxPoint y="30" as="targetPoint" />
            <Array as="points">
              <mxPoint />
              <mxPoint y="35" />
            </Array>
            <mxPoint as="offset" />
          </mxGeometry>
        </mxCell>
        <mxCell id="THpzJJgdX24z2KqZOQtY-221" value="diagnostic" style="rounded=0;whiteSpace=wrap;html=1;" parent="THpzJJgdX24z2KqZOQtY-367" vertex="1">
          <mxGeometry x="10" y="30" width="70" height="20" as="geometry" />
        </mxCell>
        <mxCell id="THpzJJgdX24z2KqZOQtY-275" value="&lt;p style=&quot;line-height: 100%;&quot;&gt;queued&lt;br&gt;pending&lt;/p&gt;" style="ellipse;whiteSpace=wrap;html=1;fillColor=#ffe6cc;strokeColor=#d79b00;" parent="THpzJJgdX24z2KqZOQtY-367" vertex="1">
          <mxGeometry x="47.25" y="70" width="55" height="45" as="geometry" />
        </mxCell>
        <mxCell id="THpzJJgdX24z2KqZOQtY-276" value="" style="endArrow=open;html=1;rounded=0;entryX=0.5;entryY=0;entryDx=0;entryDy=0;dashed=1;dashPattern=1 2;endFill=0;" parent="THpzJJgdX24z2KqZOQtY-367" target="THpzJJgdX24z2KqZOQtY-275" edge="1">
          <mxGeometry width="50" height="50" relative="1" as="geometry">
            <mxPoint x="75" y="40" as="sourcePoint" />
            <mxPoint x="185" y="50" as="targetPoint" />
          </mxGeometry>
        </mxCell>
        <mxCell id="THpzJJgdX24z2KqZOQtY-370" value="" style="group" parent="THpzJJgdX24z2KqZOQtY-373" vertex="1" connectable="0">
          <mxGeometry x="78.75" y="10" width="91.25" height="65" as="geometry" />
        </mxCell>
        <mxCell id="THpzJJgdX24z2KqZOQtY-279" value="pending?" style="rounded=0;whiteSpace=wrap;html=1;" parent="THpzJJgdX24z2KqZOQtY-370" vertex="1">
          <mxGeometry x="1.25" y="20" width="60" height="20" as="geometry" />
        </mxCell>
        <mxCell id="THpzJJgdX24z2KqZOQtY-280" value="&lt;font style=&quot;--darkreader-inline-color: #ff6161;&quot; data-darkreader-inline-color=&quot;&quot; color=&quot;#ff6666&quot;&gt;on session&lt;/font&gt;" style="text;html=1;strokeColor=none;fillColor=none;align=center;verticalAlign=middle;whiteSpace=wrap;rounded=0;" parent="THpzJJgdX24z2KqZOQtY-370" vertex="1">
          <mxGeometry y="35" width="62.5" height="30" as="geometry" />
        </mxCell>
        <mxCell id="THpzJJgdX24z2KqZOQtY-273" value="expanded" style="curved=1;endArrow=oval;html=1;rounded=0;exitX=0;exitY=1;exitDx=0;exitDy=0;dashed=1;endFill=0;startArrow=oval;startFill=0;" parent="1" source="THpzJJgdX24z2KqZOQtY-155" edge="1">
          <mxGeometry x="0.484" y="-15" width="50" height="50" relative="1" as="geometry">
            <mxPoint x="380" y="1340" as="sourcePoint" />
            <mxPoint x="240" y="1210" as="targetPoint" />
            <Array as="points">
              <mxPoint x="300" y="1090" />
              <mxPoint x="320" y="1190" />
            </Array>
            <mxPoint as="offset" />
          </mxGeometry>
        </mxCell>
        <mxCell id="paoHkUJUoMEpzwN9Pbfl-54" value="" style="group" parent="1" vertex="1" connectable="0">
          <mxGeometry x="270" y="1460" width="430" height="130" as="geometry" />
        </mxCell>
        <mxCell id="THpzJJgdX24z2KqZOQtY-372" value="" style="group" parent="paoHkUJUoMEpzwN9Pbfl-54" vertex="1" connectable="0">
          <mxGeometry x="150" y="-20" width="280" height="150" as="geometry" />
        </mxCell>
        <mxCell id="THpzJJgdX24z2KqZOQtY-354" value="session" style="rounded=0;whiteSpace=wrap;html=1;" parent="THpzJJgdX24z2KqZOQtY-372" vertex="1">
          <mxGeometry x="30" y="80" width="70" height="20" as="geometry" />
        </mxCell>
        <mxCell id="THpzJJgdX24z2KqZOQtY-356" value="diagnostic complete" style="endArrow=classic;html=1;rounded=0;" parent="THpzJJgdX24z2KqZOQtY-372" edge="1">
          <mxGeometry x="-0.2683" y="-27" width="50" height="50" relative="1" as="geometry">
            <mxPoint x="40" y="90" as="sourcePoint" />
            <mxPoint x="60" as="targetPoint" />
            <mxPoint as="offset" />
          </mxGeometry>
        </mxCell>
        <mxCell id="THpzJJgdX24z2KqZOQtY-355" value="" style="endArrow=classic;html=1;rounded=0;" parent="THpzJJgdX24z2KqZOQtY-372" edge="1">
          <mxGeometry width="50" height="50" relative="1" as="geometry">
            <mxPoint x="70" as="sourcePoint" />
            <mxPoint x="90" y="90" as="targetPoint" />
          </mxGeometry>
        </mxCell>
        <mxCell id="THpzJJgdX24z2KqZOQtY-352" value="busy" style="text;html=1;align=center;verticalAlign=middle;whiteSpace=wrap;rounded=0;fontColor=#FF6666;" parent="THpzJJgdX24z2KqZOQtY-372" vertex="1">
          <mxGeometry x="120" y="105" width="30" height="10" as="geometry" />
        </mxCell>
        <mxCell id="THpzJJgdX24z2KqZOQtY-353" value="pending?" style="rounded=0;whiteSpace=wrap;html=1;" parent="THpzJJgdX24z2KqZOQtY-372" vertex="1">
          <mxGeometry x="170" y="80" width="60" height="20" as="geometry" />
        </mxCell>
        <mxCell id="THpzJJgdX24z2KqZOQtY-357" value="diagnostic?" style="rounded=0;whiteSpace=wrap;html=1;" parent="THpzJJgdX24z2KqZOQtY-372" vertex="1">
          <mxGeometry x="100" y="80" width="70" height="20" as="geometry" />
        </mxCell>
        <mxCell id="THpzJJgdX24z2KqZOQtY-358" value="&lt;div style=&quot;line-height: 100%;&quot;&gt;session&lt;/div&gt;&lt;div style=&quot;line-height: 100%;&quot;&gt;&lt;span data-darkreader-inline-color=&quot;&quot; data-darkreader-inline-bgcolor=&quot;&quot; style=&quot;background-color: initial; color: rgb(0, 0, 0); --darkreader-inline-bgcolor: initial; --darkreader-inline-color: #e8e6e3;&quot;&gt;start&lt;/span&gt;&lt;/div&gt;" style="ellipse;whiteSpace=wrap;html=1;fillColor=#dae8fc;strokeColor=#6c8ebf;" parent="THpzJJgdX24z2KqZOQtY-372" vertex="1">
          <mxGeometry y="120" width="60" height="30" as="geometry" />
        </mxCell>
        <mxCell id="THpzJJgdX24z2KqZOQtY-359" value="&lt;div style=&quot;line-height: 100%;&quot;&gt;session&lt;/div&gt;&lt;div style=&quot;line-height: 100%;&quot;&gt;&lt;span data-darkreader-inline-color=&quot;&quot; data-darkreader-inline-bgcolor=&quot;&quot; style=&quot;background-color: initial; color: rgb(0, 0, 0); --darkreader-inline-bgcolor: initial; --darkreader-inline-color: #e8e6e3;&quot;&gt;end&lt;/span&gt;&lt;/div&gt;" style="ellipse;whiteSpace=wrap;html=1;fillColor=#dae8fc;strokeColor=#6c8ebf;" parent="THpzJJgdX24z2KqZOQtY-372" vertex="1">
          <mxGeometry x="70" y="120" width="60" height="30" as="geometry" />
        </mxCell>
        <mxCell id="THpzJJgdX24z2KqZOQtY-360" value="nothing" style="text;html=1;strokeColor=none;fillColor=none;align=center;verticalAlign=middle;whiteSpace=wrap;rounded=0;" parent="THpzJJgdX24z2KqZOQtY-372" vertex="1">
          <mxGeometry x="185" y="105" width="30" height="10" as="geometry" />
        </mxCell>
        <mxCell id="THpzJJgdX24z2KqZOQtY-361" value="" style="endArrow=classic;html=1;rounded=0;exitX=1;exitY=0.5;exitDx=0;exitDy=0;entryX=0.97;entryY=1.011;entryDx=0;entryDy=0;entryPerimeter=0;edgeStyle=orthogonalEdgeStyle;" parent="THpzJJgdX24z2KqZOQtY-372" edge="1">
          <mxGeometry width="50" height="50" relative="1" as="geometry">
            <mxPoint x="230" y="90" as="sourcePoint" />
            <mxPoint x="240" y="50" as="targetPoint" />
            <Array as="points">
              <mxPoint x="230" y="90" />
            </Array>
          </mxGeometry>
        </mxCell>
        <mxCell id="THpzJJgdX24z2KqZOQtY-362" value="" style="endArrow=open;html=1;rounded=0;exitX=0;exitY=1;exitDx=0;exitDy=0;fillColor=#dae8fc;strokeColor=#6c8ebf;entryX=0.5;entryY=0;entryDx=0;entryDy=0;dashed=1;dashPattern=1 2;endFill=0;" parent="THpzJJgdX24z2KqZOQtY-372" source="THpzJJgdX24z2KqZOQtY-354" target="THpzJJgdX24z2KqZOQtY-358" edge="1">
          <mxGeometry width="50" height="50" relative="1" as="geometry">
            <mxPoint x="1175" y="2015" as="sourcePoint" />
            <mxPoint x="1170" y="2035" as="targetPoint" />
            <mxPoint as="offset" />
          </mxGeometry>
        </mxCell>
        <mxCell id="THpzJJgdX24z2KqZOQtY-363" value="" style="endArrow=open;html=1;rounded=0;exitX=1;exitY=1;exitDx=0;exitDy=0;fillColor=#dae8fc;strokeColor=#6c8ebf;entryX=0.5;entryY=0;entryDx=0;entryDy=0;dashed=1;dashPattern=1 2;endFill=0;" parent="THpzJJgdX24z2KqZOQtY-372" source="THpzJJgdX24z2KqZOQtY-354" target="THpzJJgdX24z2KqZOQtY-359" edge="1">
          <mxGeometry width="50" height="50" relative="1" as="geometry">
            <mxPoint x="1240" y="2015" as="sourcePoint" />
            <mxPoint x="1240" y="2035" as="targetPoint" />
            <mxPoint as="offset" />
          </mxGeometry>
        </mxCell>
        <mxCell id="THpzJJgdX24z2KqZOQtY-211" value="diagnostic?" style="rounded=0;whiteSpace=wrap;html=1;" parent="paoHkUJUoMEpzwN9Pbfl-54" vertex="1">
          <mxGeometry y="10" width="400" height="20" as="geometry" />
        </mxCell>
        <mxCell id="THpzJJgdX24z2KqZOQtY-234" value="" style="rounded=1;whiteSpace=wrap;html=1;fillColor=#e1d5e7;strokeColor=#9673a6;" parent="paoHkUJUoMEpzwN9Pbfl-54" vertex="1">
          <mxGeometry x="80" y="15" width="70" height="10" as="geometry" />
        </mxCell>
        <mxCell id="THpzJJgdX24z2KqZOQtY-235" value="request" style="endArrow=classic;html=1;rounded=0;" parent="paoHkUJUoMEpzwN9Pbfl-54" edge="1">
          <mxGeometry x="-0.4" y="-18" width="50" height="50" relative="1" as="geometry">
            <mxPoint x="70" y="-20" as="sourcePoint" />
            <mxPoint x="90" y="20" as="targetPoint" />
            <Array as="points">
              <mxPoint x="80" />
            </Array>
            <mxPoint as="offset" />
          </mxGeometry>
        </mxCell>
        <mxCell id="THpzJJgdX24z2KqZOQtY-236" value="response" style="endArrow=classic;html=1;rounded=0;" parent="paoHkUJUoMEpzwN9Pbfl-54" edge="1">
          <mxGeometry x="0.4" y="-18" width="50" height="50" relative="1" as="geometry">
            <mxPoint x="90" y="20" as="sourcePoint" />
            <mxPoint x="110" y="-20" as="targetPoint" />
            <mxPoint as="offset" />
            <Array as="points">
              <mxPoint x="100" />
            </Array>
          </mxGeometry>
        </mxCell>
        <mxCell id="THpzJJgdX24z2KqZOQtY-225" value="diagnostic" style="ellipse;whiteSpace=wrap;html=1;fillColor=#dae8fc;strokeColor=#6c8ebf;" parent="paoHkUJUoMEpzwN9Pbfl-54" vertex="1">
          <mxGeometry x="370" y="100" width="60" height="20" as="geometry" />
        </mxCell>
        <mxCell id="THpzJJgdX24z2KqZOQtY-222" value="&lt;br&gt;" style="endArrow=open;html=1;rounded=0;exitX=1;exitY=1;exitDx=0;exitDy=0;fillColor=#dae8fc;strokeColor=#6c8ebf;entryX=0.5;entryY=0;entryDx=0;entryDy=0;dashed=1;dashPattern=1 2;endFill=0;" parent="paoHkUJUoMEpzwN9Pbfl-54" source="THpzJJgdX24z2KqZOQtY-211" target="THpzJJgdX24z2KqZOQtY-225" edge="1">
          <mxGeometry x="-0.3333" width="50" height="50" relative="1" as="geometry">
            <mxPoint x="1010" y="3560" as="sourcePoint" />
            <mxPoint x="1010" y="3590" as="targetPoint" />
            <mxPoint as="offset" />
          </mxGeometry>
        </mxCell>
        <mxCell id="THpzJJgdX24z2KqZOQtY-282" value="" style="shape=waypoint;sketch=0;fillStyle=solid;size=6;pointerEvents=1;points=[];fillColor=none;resizable=0;rotatable=0;perimeter=centerPerimeter;snapToPoint=1;" parent="paoHkUJUoMEpzwN9Pbfl-54" vertex="1">
          <mxGeometry x="140" y="30" width="20" height="20" as="geometry" />
        </mxCell>
        <mxCell id="THpzJJgdX24z2KqZOQtY-274" value="expanded" style="curved=1;endArrow=oval;html=1;rounded=0;exitX=0;exitY=1;exitDx=0;exitDy=0;dashed=1;startArrow=oval;startFill=0;endFill=0;" parent="1" source="THpzJJgdX24z2KqZOQtY-234" edge="1">
          <mxGeometry x="0.5604" y="-14" width="50" height="50" relative="1" as="geometry">
            <mxPoint x="340" y="1485" as="sourcePoint" />
            <mxPoint x="240" y="1650" as="targetPoint" />
            <Array as="points">
              <mxPoint x="310" y="1540" />
              <mxPoint x="320" y="1630" />
            </Array>
            <mxPoint as="offset" />
          </mxGeometry>
        </mxCell>
        <mxCell id="qrqE6ktLIQG-A0BeUlNP-1" value="Simumlator" style="endArrow=classic;html=1;rounded=0;strokeWidth=2;" edge="1" parent="1" target="qrqE6ktLIQG-A0BeUlNP-81">
          <mxGeometry x="-1" y="-10" width="50" height="50" relative="1" as="geometry">
            <mxPoint x="35" y="450" as="sourcePoint" />
            <mxPoint x="695" y="450" as="targetPoint" />
            <mxPoint as="offset" />
          </mxGeometry>
        </mxCell>
        <mxCell id="qrqE6ktLIQG-A0BeUlNP-2" value="request" style="endArrow=classic;html=1;rounded=0;" edge="1" parent="1">
          <mxGeometry x="-0.4" y="-18" width="50" height="50" relative="1" as="geometry">
            <mxPoint x="55" y="360" as="sourcePoint" />
            <mxPoint x="75" y="450" as="targetPoint" />
            <Array as="points" />
            <mxPoint as="offset" />
          </mxGeometry>
        </mxCell>
        <mxCell id="qrqE6ktLIQG-A0BeUlNP-3" value="&lt;blockquote data-darkreader-inline-border-left=&quot;&quot; data-darkreader-inline-border-bottom=&quot;&quot; data-darkreader-inline-border-right=&quot;&quot; data-darkreader-inline-border-top=&quot;&quot; style=&quot;margin: 0px 0px 0px 40px; border: none; padding: 0px; --darkreader-inline-border-top: initial; --darkreader-inline-border-right: initial; --darkreader-inline-border-bottom: initial; --darkreader-inline-border-left: initial;&quot;&gt;session&lt;/blockquote&gt;" style="rounded=0;whiteSpace=wrap;html=1;align=left;" vertex="1" parent="1">
          <mxGeometry x="115" y="440" width="430" height="20" as="geometry" />
        </mxCell>
        <mxCell id="qrqE6ktLIQG-A0BeUlNP-4" value="&lt;font style=&quot;font-size: 9px;&quot;&gt;6&lt;br&gt;CONNECTION&lt;br&gt;REQUEST&lt;/font&gt;" style="endArrow=classic;html=1;rounded=0;" edge="1" parent="1">
          <mxGeometry x="-0.3647" y="7" width="50" height="50" relative="1" as="geometry">
            <mxPoint x="145" y="450" as="sourcePoint" />
            <mxPoint x="165" y="360" as="targetPoint" />
            <mxPoint as="offset" />
          </mxGeometry>
        </mxCell>
        <mxCell id="qrqE6ktLIQG-A0BeUlNP-5" value="&lt;font style=&quot;font-size: 9px;&quot;&gt;task&lt;br&gt;GetParameterValues&lt;/font&gt;" style="endArrow=classic;html=1;rounded=0;" edge="1" parent="1">
          <mxGeometry x="-0.4794" y="15" width="50" height="50" relative="1" as="geometry">
            <mxPoint x="195" y="360" as="sourcePoint" />
            <mxPoint x="215" y="450" as="targetPoint" />
            <mxPoint as="offset" />
          </mxGeometry>
        </mxCell>
        <mxCell id="qrqE6ktLIQG-A0BeUlNP-6" value="&lt;font style=&quot;font-size: 9px;&quot;&gt;task response&lt;/font&gt;" style="endArrow=classic;html=1;rounded=0;" edge="1" parent="1">
          <mxGeometry x="-0.3176" y="-3" width="50" height="50" relative="1" as="geometry">
            <mxPoint x="265" y="450" as="sourcePoint" />
            <mxPoint x="285" y="360" as="targetPoint" />
            <mxPoint as="offset" />
          </mxGeometry>
        </mxCell>
        <mxCell id="qrqE6ktLIQG-A0BeUlNP-7" value="&lt;font style=&quot;font-size: 9px;&quot;&gt;task&lt;br&gt;SetParameterValues&lt;/font&gt;" style="endArrow=classic;html=1;rounded=0;" edge="1" parent="1">
          <mxGeometry x="-0.4824" y="15" width="50" height="50" relative="1" as="geometry">
            <mxPoint x="315" y="360" as="sourcePoint" />
            <mxPoint x="335" y="450" as="targetPoint" />
            <mxPoint as="offset" />
          </mxGeometry>
        </mxCell>
        <mxCell id="qrqE6ktLIQG-A0BeUlNP-8" value="ACS" style="endArrow=classic;html=1;rounded=0;strokeWidth=2;" edge="1" parent="1" target="qrqE6ktLIQG-A0BeUlNP-82">
          <mxGeometry x="-1" y="10" width="50" height="50" relative="1" as="geometry">
            <mxPoint x="35" y="360" as="sourcePoint" />
            <mxPoint x="695" y="360" as="targetPoint" />
            <mxPoint as="offset" />
          </mxGeometry>
        </mxCell>
        <mxCell id="qrqE6ktLIQG-A0BeUlNP-9" value="response" style="endArrow=classic;html=1;rounded=0;" edge="1" parent="1">
          <mxGeometry x="0.4" y="-18" width="50" height="50" relative="1" as="geometry">
            <mxPoint x="75" y="450" as="sourcePoint" />
            <mxPoint x="95" y="360" as="targetPoint" />
            <mxPoint as="offset" />
          </mxGeometry>
        </mxCell>
        <mxCell id="qrqE6ktLIQG-A0BeUlNP-11" value="Task events" style="text;html=1;strokeColor=none;fillColor=none;align=center;verticalAlign=middle;whiteSpace=wrap;rounded=0;" vertex="1" parent="1">
          <mxGeometry x="115" y="310" width="140" height="30" as="geometry" />
        </mxCell>
        <mxCell id="qrqE6ktLIQG-A0BeUlNP-13" value="&lt;br&gt;" style="endArrow=open;html=1;rounded=0;exitX=1;exitY=1;exitDx=0;exitDy=0;fillColor=#dae8fc;strokeColor=#6c8ebf;entryX=0.5;entryY=0;entryDx=0;entryDy=0;dashed=1;dashPattern=1 2;endFill=0;" edge="1" parent="1" target="qrqE6ktLIQG-A0BeUlNP-18" source="qrqE6ktLIQG-A0BeUlNP-3">
          <mxGeometry x="-0.2" width="50" height="50" relative="1" as="geometry">
            <mxPoint x="264.9999999999999" y="410" as="sourcePoint" />
            <mxPoint x="265" y="430" as="targetPoint" />
            <mxPoint as="offset" />
          </mxGeometry>
        </mxCell>
        <mxCell id="qrqE6ktLIQG-A0BeUlNP-14" value="&lt;br&gt;" style="endArrow=open;html=1;rounded=0;exitX=0;exitY=1;exitDx=0;exitDy=0;fillColor=#dae8fc;strokeColor=#6c8ebf;entryX=0.5;entryY=0;entryDx=0;entryDy=0;dashed=1;dashPattern=1 2;endFill=0;" edge="1" parent="1" target="qrqE6ktLIQG-A0BeUlNP-17" source="qrqE6ktLIQG-A0BeUlNP-3">
          <mxGeometry x="-0.3333" width="50" height="50" relative="1" as="geometry">
            <mxPoint x="115" y="410" as="sourcePoint" />
            <mxPoint x="115" y="430" as="targetPoint" />
            <mxPoint as="offset" />
          </mxGeometry>
        </mxCell>
        <mxCell id="qrqE6ktLIQG-A0BeUlNP-15" value="&lt;br&gt;" style="endArrow=open;html=1;rounded=0;fillColor=#dae8fc;strokeColor=#6c8ebf;entryX=0.5;entryY=0;entryDx=0;entryDy=0;dashed=1;dashPattern=1 2;endFill=0;" edge="1" parent="1" target="qrqE6ktLIQG-A0BeUlNP-16">
          <mxGeometry width="50" height="50" relative="1" as="geometry">
            <mxPoint x="75" y="450" as="sourcePoint" />
            <mxPoint x="77.5" y="530.0000000000001" as="targetPoint" />
            <mxPoint as="offset" />
          </mxGeometry>
        </mxCell>
        <mxCell id="qrqE6ktLIQG-A0BeUlNP-16" value="requested" style="ellipse;whiteSpace=wrap;html=1;fillColor=#dae8fc;strokeColor=#6c8ebf;" vertex="1" parent="1">
          <mxGeometry x="45" y="470" width="60" height="20" as="geometry" />
        </mxCell>
        <mxCell id="qrqE6ktLIQG-A0BeUlNP-17" value="&lt;div style=&quot;line-height: 100%;&quot;&gt;session&lt;/div&gt;&lt;div style=&quot;line-height: 100%;&quot;&gt;&lt;span data-darkreader-inline-color=&quot;&quot; data-darkreader-inline-bgcolor=&quot;&quot; style=&quot;background-color: initial; color: rgb(0, 0, 0); --darkreader-inline-bgcolor: initial; --darkreader-inline-color: #e8e6e3;&quot;&gt;start&lt;/span&gt;&lt;/div&gt;" style="ellipse;whiteSpace=wrap;html=1;fillColor=#dae8fc;strokeColor=#6c8ebf;" vertex="1" parent="1">
          <mxGeometry x="85" y="490" width="60" height="30" as="geometry" />
        </mxCell>
        <mxCell id="qrqE6ktLIQG-A0BeUlNP-18" value="&lt;div style=&quot;line-height: 100%;&quot;&gt;session&lt;/div&gt;&lt;div style=&quot;line-height: 100%;&quot;&gt;&lt;span data-darkreader-inline-color=&quot;&quot; data-darkreader-inline-bgcolor=&quot;&quot; style=&quot;background-color: initial; color: rgb(0, 0, 0); --darkreader-inline-bgcolor: initial; --darkreader-inline-color: #e8e6e3;&quot;&gt;end&lt;/span&gt;&lt;/div&gt;" style="ellipse;whiteSpace=wrap;html=1;fillColor=#dae8fc;strokeColor=#6c8ebf;" vertex="1" parent="1">
          <mxGeometry x="515" y="490" width="60" height="30" as="geometry" />
        </mxCell>
        <mxCell id="qrqE6ktLIQG-A0BeUlNP-19" value="" style="group" vertex="1" connectable="0" parent="1">
          <mxGeometry x="615" y="440" width="60" height="35" as="geometry" />
        </mxCell>
        <mxCell id="qrqE6ktLIQG-A0BeUlNP-20" value="pending?" style="rounded=0;whiteSpace=wrap;html=1;" vertex="1" parent="qrqE6ktLIQG-A0BeUlNP-19">
          <mxGeometry width="60" height="20" as="geometry" />
        </mxCell>
        <mxCell id="qrqE6ktLIQG-A0BeUlNP-21" value="nothing" style="text;html=1;strokeColor=none;fillColor=none;align=center;verticalAlign=middle;whiteSpace=wrap;rounded=0;" vertex="1" parent="qrqE6ktLIQG-A0BeUlNP-19">
          <mxGeometry x="2.5" y="25" width="55" height="10" as="geometry" />
        </mxCell>
        <mxCell id="qrqE6ktLIQG-A0BeUlNP-22" value="" style="group" vertex="1" connectable="0" parent="1">
          <mxGeometry x="545" y="440" width="70" height="35" as="geometry" />
        </mxCell>
        <mxCell id="qrqE6ktLIQG-A0BeUlNP-10" value="diganostic?" style="rounded=0;whiteSpace=wrap;html=1;" vertex="1" parent="qrqE6ktLIQG-A0BeUlNP-22">
          <mxGeometry width="70" height="20" as="geometry" />
        </mxCell>
        <mxCell id="qrqE6ktLIQG-A0BeUlNP-12" value="nothing" style="text;html=1;strokeColor=none;fillColor=none;align=center;verticalAlign=middle;whiteSpace=wrap;rounded=0;" vertex="1" parent="qrqE6ktLIQG-A0BeUlNP-22">
          <mxGeometry x="10" y="25" width="50" height="10" as="geometry" />
        </mxCell>
        <mxCell id="qrqE6ktLIQG-A0BeUlNP-23" value="" style="group" vertex="1" connectable="0" parent="1">
          <mxGeometry x="50" y="160" width="60" height="80" as="geometry" />
        </mxCell>
        <mxCell id="THpzJJgdX24z2KqZOQtY-2" value="request" style="endArrow=classic;html=1;rounded=0;" parent="qrqE6ktLIQG-A0BeUlNP-23" edge="1">
          <mxGeometry x="-0.4" y="-18" width="50" height="50" relative="1" as="geometry">
            <mxPoint x="10" as="sourcePoint" />
            <mxPoint x="30" y="40" as="targetPoint" />
            <Array as="points">
              <mxPoint x="20" y="20" />
            </Array>
            <mxPoint as="offset" />
          </mxGeometry>
        </mxCell>
        <mxCell id="THpzJJgdX24z2KqZOQtY-17" value="response" style="endArrow=classic;html=1;rounded=0;" parent="qrqE6ktLIQG-A0BeUlNP-23" edge="1">
          <mxGeometry x="0.4" y="-18" width="50" height="50" relative="1" as="geometry">
            <mxPoint x="30" y="40" as="sourcePoint" />
            <mxPoint x="50" as="targetPoint" />
            <mxPoint as="offset" />
          </mxGeometry>
        </mxCell>
        <mxCell id="THpzJJgdX24z2KqZOQtY-94" value="&lt;br&gt;" style="endArrow=open;html=1;rounded=0;fillColor=#dae8fc;strokeColor=#6c8ebf;entryX=0.5;entryY=0;entryDx=0;entryDy=0;dashed=1;dashPattern=1 2;endFill=0;" parent="qrqE6ktLIQG-A0BeUlNP-23" target="THpzJJgdX24z2KqZOQtY-98" edge="1">
          <mxGeometry width="50" height="50" relative="1" as="geometry">
            <mxPoint x="30" y="40" as="sourcePoint" />
            <mxPoint x="32.5" y="120.00000000000011" as="targetPoint" />
            <mxPoint as="offset" />
          </mxGeometry>
        </mxCell>
        <mxCell id="THpzJJgdX24z2KqZOQtY-98" value="requested" style="ellipse;whiteSpace=wrap;html=1;fillColor=#dae8fc;strokeColor=#6c8ebf;" parent="qrqE6ktLIQG-A0BeUlNP-23" vertex="1">
          <mxGeometry y="60" width="60" height="20" as="geometry" />
        </mxCell>
        <mxCell id="qrqE6ktLIQG-A0BeUlNP-24" value="" style="group" vertex="1" connectable="0" parent="1">
          <mxGeometry x="270" y="190" width="70" height="35" as="geometry" />
        </mxCell>
        <mxCell id="THpzJJgdX24z2KqZOQtY-18" value="diganostic?" style="rounded=0;whiteSpace=wrap;html=1;" parent="qrqE6ktLIQG-A0BeUlNP-24" vertex="1">
          <mxGeometry width="70" height="20" as="geometry" />
        </mxCell>
        <mxCell id="THpzJJgdX24z2KqZOQtY-54" value="nothing" style="text;html=1;strokeColor=none;fillColor=none;align=center;verticalAlign=middle;whiteSpace=wrap;rounded=0;" parent="qrqE6ktLIQG-A0BeUlNP-24" vertex="1">
          <mxGeometry x="10" y="25" width="50" height="10" as="geometry" />
        </mxCell>
        <mxCell id="qrqE6ktLIQG-A0BeUlNP-25" value="" style="group" vertex="1" connectable="0" parent="1">
          <mxGeometry x="90" y="160" width="210" height="110" as="geometry" />
        </mxCell>
        <mxCell id="THpzJJgdX24z2KqZOQtY-4" value="session" style="rounded=0;whiteSpace=wrap;html=1;" parent="qrqE6ktLIQG-A0BeUlNP-25" vertex="1">
          <mxGeometry x="30" y="30" width="150" height="20" as="geometry" />
        </mxCell>
        <mxCell id="THpzJJgdX24z2KqZOQtY-7" value="" style="endArrow=classic;html=1;rounded=0;" parent="qrqE6ktLIQG-A0BeUlNP-25" edge="1">
          <mxGeometry width="50" height="50" relative="1" as="geometry">
            <mxPoint x="50" y="40" as="sourcePoint" />
            <mxPoint x="60" as="targetPoint" />
          </mxGeometry>
        </mxCell>
        <mxCell id="THpzJJgdX24z2KqZOQtY-8" value="" style="endArrow=classic;html=1;rounded=0;" parent="qrqE6ktLIQG-A0BeUlNP-25" edge="1">
          <mxGeometry width="50" height="50" relative="1" as="geometry">
            <mxPoint x="70" as="sourcePoint" />
            <mxPoint x="80" y="40" as="targetPoint" />
          </mxGeometry>
        </mxCell>
        <mxCell id="THpzJJgdX24z2KqZOQtY-14" value="" style="endArrow=classic;html=1;rounded=0;" parent="qrqE6ktLIQG-A0BeUlNP-25" edge="1">
          <mxGeometry width="50" height="50" relative="1" as="geometry">
            <mxPoint x="130" y="40" as="sourcePoint" />
            <mxPoint x="140" as="targetPoint" />
          </mxGeometry>
        </mxCell>
        <mxCell id="THpzJJgdX24z2KqZOQtY-15" value="" style="endArrow=classic;html=1;rounded=0;" parent="qrqE6ktLIQG-A0BeUlNP-25" edge="1">
          <mxGeometry width="50" height="50" relative="1" as="geometry">
            <mxPoint x="150" as="sourcePoint" />
            <mxPoint x="160" y="40" as="targetPoint" />
          </mxGeometry>
        </mxCell>
        <mxCell id="THpzJJgdX24z2KqZOQtY-104" value="&lt;div&gt;session&lt;/div&gt;&lt;div&gt;&lt;span data-darkreader-inline-color=&quot;&quot; data-darkreader-inline-bgcolor=&quot;&quot; style=&quot;background-color: initial; color: rgb(0, 0, 0); --darkreader-inline-bgcolor: initial; --darkreader-inline-color: #e8e6e3;&quot;&gt;start&lt;/span&gt;&lt;/div&gt;" style="ellipse;whiteSpace=wrap;html=1;fillColor=#dae8fc;strokeColor=#6c8ebf;" parent="qrqE6ktLIQG-A0BeUlNP-25" vertex="1">
          <mxGeometry y="80" width="60" height="30" as="geometry" />
        </mxCell>
        <mxCell id="THpzJJgdX24z2KqZOQtY-106" value="&lt;div&gt;session&lt;/div&gt;&lt;div&gt;&lt;span data-darkreader-inline-color=&quot;&quot; data-darkreader-inline-bgcolor=&quot;&quot; style=&quot;background-color: initial; color: rgb(0, 0, 0); --darkreader-inline-bgcolor: initial; --darkreader-inline-color: #e8e6e3;&quot;&gt;end&lt;/span&gt;&lt;/div&gt;" style="ellipse;whiteSpace=wrap;html=1;fillColor=#dae8fc;strokeColor=#6c8ebf;" parent="qrqE6ktLIQG-A0BeUlNP-25" vertex="1">
          <mxGeometry x="150" y="80" width="60" height="30" as="geometry" />
        </mxCell>
        <mxCell id="THpzJJgdX24z2KqZOQtY-91" value="&lt;br&gt;" style="endArrow=open;html=1;rounded=0;fillColor=#dae8fc;strokeColor=#6c8ebf;entryX=0.5;entryY=0;entryDx=0;entryDy=0;exitX=0;exitY=1;exitDx=0;exitDy=0;dashed=1;dashPattern=1 2;endFill=0;" parent="qrqE6ktLIQG-A0BeUlNP-25" target="THpzJJgdX24z2KqZOQtY-104" edge="1" source="THpzJJgdX24z2KqZOQtY-4">
          <mxGeometry x="-0.3333" width="50" height="50" relative="1" as="geometry">
            <mxPoint x="110" y="210" as="sourcePoint" />
            <mxPoint x="120" y="230" as="targetPoint" />
            <mxPoint as="offset" />
          </mxGeometry>
        </mxCell>
        <mxCell id="THpzJJgdX24z2KqZOQtY-90" value="&lt;br&gt;" style="endArrow=open;html=1;rounded=0;exitX=1;exitY=1;exitDx=0;exitDy=0;fillColor=#dae8fc;strokeColor=#6c8ebf;entryX=0.5;entryY=0;entryDx=0;entryDy=0;dashed=1;dashPattern=1 2;endFill=0;" parent="qrqE6ktLIQG-A0BeUlNP-25" target="THpzJJgdX24z2KqZOQtY-106" edge="1" source="THpzJJgdX24z2KqZOQtY-4">
          <mxGeometry x="-0.2" width="50" height="50" relative="1" as="geometry">
            <mxPoint x="269.9999999999999" y="210" as="sourcePoint" />
            <mxPoint x="270" y="230" as="targetPoint" />
            <mxPoint as="offset" />
          </mxGeometry>
        </mxCell>
        <mxCell id="qrqE6ktLIQG-A0BeUlNP-29" value="&lt;br&gt;" style="endArrow=open;html=1;rounded=0;fillColor=#dae8fc;strokeColor=#6c8ebf;entryX=0.5;entryY=0;entryDx=0;entryDy=0;dashed=1;dashPattern=1 2;endFill=0;" edge="1" parent="1" target="qrqE6ktLIQG-A0BeUlNP-30">
          <mxGeometry x="-0.2" width="50" height="50" relative="1" as="geometry">
            <mxPoint x="335" y="450" as="sourcePoint" />
            <mxPoint x="345" y="485" as="targetPoint" />
            <mxPoint as="offset" />
          </mxGeometry>
        </mxCell>
        <mxCell id="qrqE6ktLIQG-A0BeUlNP-30" value="&lt;div style=&quot;font-size: 10px; line-height: 100%;&quot;&gt;task&lt;br&gt;&quot;GetParameterValues&quot;&lt;/div&gt;" style="ellipse;whiteSpace=wrap;html=1;fillColor=#dae8fc;strokeColor=#6c8ebf;align=center;" vertex="1" parent="1">
          <mxGeometry x="295" y="520" width="110" height="40" as="geometry" />
        </mxCell>
        <mxCell id="qrqE6ktLIQG-A0BeUlNP-31" value="&lt;font style=&quot;font-size: 9px;&quot;&gt;task response&lt;/font&gt;" style="endArrow=classic;html=1;rounded=0;" edge="1" parent="1">
          <mxGeometry x="-0.3176" y="-3" width="50" height="50" relative="1" as="geometry">
            <mxPoint x="395" y="450" as="sourcePoint" />
            <mxPoint x="415" y="360" as="targetPoint" />
            <mxPoint as="offset" />
          </mxGeometry>
        </mxCell>
        <mxCell id="qrqE6ktLIQG-A0BeUlNP-32" value="&lt;font style=&quot;font-size: 9px;&quot;&gt;empty&lt;br&gt;&lt;/font&gt;" style="endArrow=classic;html=1;rounded=0;" edge="1" parent="1">
          <mxGeometry x="-0.5294" y="5" width="50" height="50" relative="1" as="geometry">
            <mxPoint x="445" y="360" as="sourcePoint" />
            <mxPoint x="465" y="450" as="targetPoint" />
            <mxPoint as="offset" />
          </mxGeometry>
        </mxCell>
        <mxCell id="qrqE6ktLIQG-A0BeUlNP-33" value="&lt;br&gt;" style="endArrow=open;html=1;rounded=0;fillColor=#dae8fc;strokeColor=#6c8ebf;entryX=0.5;entryY=0;entryDx=0;entryDy=0;dashed=1;dashPattern=1 2;endFill=0;" edge="1" parent="1" target="qrqE6ktLIQG-A0BeUlNP-34">
          <mxGeometry x="-0.2" width="50" height="50" relative="1" as="geometry">
            <mxPoint x="465" y="450" as="sourcePoint" />
            <mxPoint x="475" y="485" as="targetPoint" />
            <mxPoint as="offset" />
          </mxGeometry>
        </mxCell>
        <mxCell id="qrqE6ktLIQG-A0BeUlNP-34" value="&lt;div style=&quot;font-size: 10px; line-height: 100%;&quot;&gt;task&lt;br&gt;&quot;SetParameterValues&quot;&lt;/div&gt;" style="ellipse;whiteSpace=wrap;html=1;fillColor=#dae8fc;strokeColor=#6c8ebf;align=center;" vertex="1" parent="1">
          <mxGeometry x="425" y="520" width="110" height="40" as="geometry" />
        </mxCell>
        <mxCell id="qrqE6ktLIQG-A0BeUlNP-57" value="&lt;br&gt;" style="endArrow=open;html=1;rounded=0;fillColor=#dae8fc;strokeColor=#6c8ebf;entryX=0.5;entryY=0;entryDx=0;entryDy=0;dashed=1;dashPattern=1 2;endFill=0;" edge="1" parent="1" target="qrqE6ktLIQG-A0BeUlNP-58">
          <mxGeometry x="-0.2" width="50" height="50" relative="1" as="geometry">
            <mxPoint x="165" y="360" as="sourcePoint" />
            <mxPoint x="175" y="470" as="targetPoint" />
            <mxPoint as="offset" />
          </mxGeometry>
        </mxCell>
        <mxCell id="qrqE6ktLIQG-A0BeUlNP-58" value="&lt;div style=&quot;font-size: 10px; line-height: 100%;&quot;&gt;sent&lt;/div&gt;" style="ellipse;whiteSpace=wrap;html=1;fillColor=#dae8fc;strokeColor=#6c8ebf;align=center;" vertex="1" parent="1">
          <mxGeometry x="150" y="480" width="30" height="15" as="geometry" />
        </mxCell>
        <mxCell id="qrqE6ktLIQG-A0BeUlNP-59" value="&lt;br&gt;" style="endArrow=open;html=1;rounded=0;fillColor=#dae8fc;strokeColor=#6c8ebf;entryX=0.5;entryY=0;entryDx=0;entryDy=0;dashed=1;dashPattern=1 2;endFill=0;" edge="1" parent="1" target="qrqE6ktLIQG-A0BeUlNP-60">
          <mxGeometry x="-0.3333" width="50" height="50" relative="1" as="geometry">
            <mxPoint x="215" y="450" as="sourcePoint" />
            <mxPoint x="215" y="480" as="targetPoint" />
            <mxPoint as="offset" />
          </mxGeometry>
        </mxCell>
        <mxCell id="qrqE6ktLIQG-A0BeUlNP-60" value="&lt;div style=&quot;font-size: 10px; line-height: 100%;&quot;&gt;response&lt;/div&gt;" style="ellipse;whiteSpace=wrap;html=1;fillColor=#dae8fc;strokeColor=#6c8ebf;align=center;" vertex="1" parent="1">
          <mxGeometry x="190" y="480" width="50" height="15" as="geometry" />
        </mxCell>
        <mxCell id="qrqE6ktLIQG-A0BeUlNP-61" value="&lt;br&gt;" style="endArrow=open;html=1;rounded=0;fillColor=#dae8fc;strokeColor=#6c8ebf;entryX=0.5;entryY=0;entryDx=0;entryDy=0;dashed=1;dashPattern=1 2;endFill=0;" edge="1" parent="1" target="qrqE6ktLIQG-A0BeUlNP-62">
          <mxGeometry x="-0.2" width="50" height="50" relative="1" as="geometry">
            <mxPoint x="285" y="360" as="sourcePoint" />
            <mxPoint x="300" y="470" as="targetPoint" />
            <mxPoint as="offset" />
          </mxGeometry>
        </mxCell>
        <mxCell id="qrqE6ktLIQG-A0BeUlNP-62" value="&lt;div style=&quot;font-size: 10px; line-height: 100%;&quot;&gt;sent&lt;/div&gt;" style="ellipse;whiteSpace=wrap;html=1;fillColor=#dae8fc;strokeColor=#6c8ebf;align=center;" vertex="1" parent="1">
          <mxGeometry x="270" y="480" width="30" height="15" as="geometry" />
        </mxCell>
        <mxCell id="qrqE6ktLIQG-A0BeUlNP-63" value="&lt;br&gt;" style="endArrow=open;html=1;rounded=0;fillColor=#dae8fc;strokeColor=#6c8ebf;entryX=0.5;entryY=0;entryDx=0;entryDy=0;dashed=1;dashPattern=1 2;endFill=0;" edge="1" parent="1" target="qrqE6ktLIQG-A0BeUlNP-64">
          <mxGeometry x="-0.3333" width="50" height="50" relative="1" as="geometry">
            <mxPoint x="335" y="450" as="sourcePoint" />
            <mxPoint x="335" y="480" as="targetPoint" />
            <mxPoint as="offset" />
          </mxGeometry>
        </mxCell>
        <mxCell id="qrqE6ktLIQG-A0BeUlNP-64" value="&lt;div style=&quot;font-size: 10px; line-height: 100%;&quot;&gt;response&lt;/div&gt;" style="ellipse;whiteSpace=wrap;html=1;fillColor=#dae8fc;strokeColor=#6c8ebf;align=center;" vertex="1" parent="1">
          <mxGeometry x="310" y="480" width="50" height="15" as="geometry" />
        </mxCell>
        <mxCell id="qrqE6ktLIQG-A0BeUlNP-65" value="&lt;br&gt;" style="endArrow=open;html=1;rounded=0;fillColor=#dae8fc;strokeColor=#6c8ebf;entryX=0.5;entryY=0;entryDx=0;entryDy=0;dashed=1;dashPattern=1 2;endFill=0;" edge="1" parent="1" target="qrqE6ktLIQG-A0BeUlNP-66">
          <mxGeometry x="-0.3333" width="50" height="50" relative="1" as="geometry">
            <mxPoint x="465" y="450" as="sourcePoint" />
            <mxPoint x="465" y="480" as="targetPoint" />
            <mxPoint as="offset" />
          </mxGeometry>
        </mxCell>
        <mxCell id="qrqE6ktLIQG-A0BeUlNP-66" value="&lt;div style=&quot;font-size: 10px; line-height: 100%;&quot;&gt;response&lt;/div&gt;" style="ellipse;whiteSpace=wrap;html=1;fillColor=#dae8fc;strokeColor=#6c8ebf;align=center;" vertex="1" parent="1">
          <mxGeometry x="440" y="480" width="50" height="15" as="geometry" />
        </mxCell>
        <mxCell id="qrqE6ktLIQG-A0BeUlNP-67" value="&lt;br&gt;" style="endArrow=open;html=1;rounded=0;fillColor=#dae8fc;strokeColor=#6c8ebf;entryX=0.5;entryY=0;entryDx=0;entryDy=0;dashed=1;dashPattern=1 2;endFill=0;" edge="1" parent="1" target="qrqE6ktLIQG-A0BeUlNP-68">
          <mxGeometry x="-0.2" width="50" height="50" relative="1" as="geometry">
            <mxPoint x="415" y="360" as="sourcePoint" />
            <mxPoint x="435" y="470" as="targetPoint" />
            <mxPoint as="offset" />
          </mxGeometry>
        </mxCell>
        <mxCell id="qrqE6ktLIQG-A0BeUlNP-68" value="&lt;div style=&quot;font-size: 10px; line-height: 100%;&quot;&gt;sent&lt;/div&gt;" style="ellipse;whiteSpace=wrap;html=1;fillColor=#dae8fc;strokeColor=#6c8ebf;align=center;" vertex="1" parent="1">
          <mxGeometry x="400" y="480" width="30" height="15" as="geometry" />
        </mxCell>
        <mxCell id="THpzJJgdX24z2KqZOQtY-286" value="" style="endArrow=classic;html=1;rounded=0;exitX=0.75;exitY=0;exitDx=0;exitDy=0;" parent="1" source="THpzJJgdX24z2KqZOQtY-279" target="THpzJJgdX24z2KqZOQtY-282" edge="1">
          <mxGeometry width="50" height="50" relative="1" as="geometry">
            <mxPoint x="808.75" y="2750" as="sourcePoint" />
            <mxPoint x="858.75" y="2700" as="targetPoint" />
          </mxGeometry>
        </mxCell>
        <mxCell id="qrqE6ktLIQG-A0BeUlNP-76" value="" style="shape=waypoint;sketch=0;fillStyle=solid;size=6;pointerEvents=1;points=[];fillColor=none;resizable=0;rotatable=0;perimeter=centerPerimeter;snapToPoint=1;" vertex="1" parent="1">
          <mxGeometry x="630" y="1240" width="20" height="20" as="geometry" />
        </mxCell>
        <mxCell id="qrqE6ktLIQG-A0BeUlNP-78" value="" style="shape=waypoint;sketch=0;fillStyle=solid;size=6;pointerEvents=1;points=[];fillColor=none;resizable=0;rotatable=0;perimeter=centerPerimeter;snapToPoint=1;" vertex="1" parent="1">
          <mxGeometry x="730" y="710" width="20" height="20" as="geometry" />
        </mxCell>
        <mxCell id="qrqE6ktLIQG-A0BeUlNP-80" value="" style="shape=waypoint;sketch=0;fillStyle=solid;size=6;pointerEvents=1;points=[];fillColor=none;resizable=0;rotatable=0;perimeter=centerPerimeter;snapToPoint=1;" vertex="1" parent="1">
          <mxGeometry x="730" y="670" width="20" height="20" as="geometry" />
        </mxCell>
        <mxCell id="qrqE6ktLIQG-A0BeUlNP-81" value="" style="shape=waypoint;sketch=0;fillStyle=solid;size=6;pointerEvents=1;points=[];fillColor=none;resizable=0;rotatable=0;perimeter=centerPerimeter;snapToPoint=1;" vertex="1" parent="1">
          <mxGeometry x="690" y="440" width="20" height="20" as="geometry" />
        </mxCell>
        <mxCell id="qrqE6ktLIQG-A0BeUlNP-82" value="" style="shape=waypoint;sketch=0;fillStyle=solid;size=6;pointerEvents=1;points=[];fillColor=none;resizable=0;rotatable=0;perimeter=centerPerimeter;snapToPoint=1;" vertex="1" parent="1">
          <mxGeometry x="690" y="350" width="20" height="20" as="geometry" />
        </mxCell>
        <mxCell id="qrqE6ktLIQG-A0BeUlNP-85" value="" style="shape=waypoint;sketch=0;fillStyle=solid;size=6;pointerEvents=1;points=[];fillColor=none;resizable=0;rotatable=0;perimeter=centerPerimeter;snapToPoint=1;" vertex="1" parent="1">
          <mxGeometry x="430" y="150" width="20" height="20" as="geometry" />
        </mxCell>
        <mxCell id="qrqE6ktLIQG-A0BeUlNP-87" value="" style="shape=waypoint;sketch=0;fillStyle=solid;size=6;pointerEvents=1;points=[];fillColor=none;resizable=0;rotatable=0;perimeter=centerPerimeter;snapToPoint=1;" vertex="1" parent="1">
          <mxGeometry x="430" y="190" width="20" height="20" as="geometry" />
        </mxCell>
        <mxCell id="qrqE6ktLIQG-A0BeUlNP-91" value="" style="shape=waypoint;sketch=0;fillStyle=solid;size=6;pointerEvents=1;points=[];fillColor=none;resizable=0;rotatable=0;perimeter=centerPerimeter;snapToPoint=1;" vertex="1" parent="1">
          <mxGeometry x="1130" y="990" width="20" height="20" as="geometry" />
        </mxCell>
        <mxCell id="qrqE6ktLIQG-A0BeUlNP-92" value="" style="shape=waypoint;sketch=0;fillStyle=solid;size=6;pointerEvents=1;points=[];fillColor=none;resizable=0;rotatable=0;perimeter=centerPerimeter;snapToPoint=1;" vertex="1" parent="1">
          <mxGeometry x="1130" y="1030" width="20" height="20" as="geometry" />
        </mxCell>
        <mxCell id="qrqE6ktLIQG-A0BeUlNP-96" value="" style="shape=waypoint;sketch=0;fillStyle=solid;size=6;pointerEvents=1;points=[];fillColor=none;resizable=0;rotatable=0;perimeter=centerPerimeter;snapToPoint=1;" vertex="1" parent="1">
          <mxGeometry x="630" y="1200" width="20" height="20" as="geometry" />
        </mxCell>
        <mxCell id="qrqE6ktLIQG-A0BeUlNP-97" value="" style="shape=waypoint;sketch=0;fillStyle=solid;size=6;pointerEvents=1;points=[];fillColor=none;resizable=0;rotatable=0;perimeter=centerPerimeter;snapToPoint=1;" vertex="1" parent="1">
          <mxGeometry x="1140" y="1430" width="20" height="20" as="geometry" />
        </mxCell>
        <mxCell id="qrqE6ktLIQG-A0BeUlNP-98" value="" style="shape=waypoint;sketch=0;fillStyle=solid;size=6;pointerEvents=1;points=[];fillColor=none;resizable=0;rotatable=0;perimeter=centerPerimeter;snapToPoint=1;" vertex="1" parent="1">
          <mxGeometry x="1140" y="1470" width="20" height="20" as="geometry" />
        </mxCell>
        <mxCell id="qrqE6ktLIQG-A0BeUlNP-99" value="" style="shape=waypoint;sketch=0;fillStyle=solid;size=6;pointerEvents=1;points=[];fillColor=none;resizable=0;rotatable=0;perimeter=centerPerimeter;snapToPoint=1;" vertex="1" parent="1">
          <mxGeometry x="600" y="1640" width="20" height="20" as="geometry" />
        </mxCell>
      </root>
    </mxGraphModel>
  </diagram>
</mxfile>
